<?xml version="1.0" encoding="UTF-8" standalone="no"?>
<!-- Created with Inkscape (http://www.inkscape.org/) -->
<svg
   xmlns:dc="http://purl.org/dc/elements/1.1/"
   xmlns:cc="http://web.resource.org/cc/"
   xmlns:rdf="http://www.w3.org/1999/02/22-rdf-syntax-ns#"
   xmlns:svg="http://www.w3.org/2000/svg"
   xmlns="http://www.w3.org/2000/svg"
   xmlns:xlink="http://www.w3.org/1999/xlink"
   xmlns:sodipodi="http://inkscape.sourceforge.net/DTD/sodipodi-0.dtd"
   xmlns:inkscape="http://www.inkscape.org/namespaces/inkscape"
   width="744.09448819"
   height="1052.3622047"
   id="svg2"
   sodipodi:version="0.32"
   inkscape:version="0.43"
   sodipodi:docbase="C:\Program Files\xampp\htdocs\phtagr\themes\default"
   sodipodi:docname="mashroom.svg"
   inkscape:export-filename="C:\Program Files\xampp\htdocs\phtagr\themes\default\mashroom.png"
   inkscape:export-xdpi="200"
   inkscape:export-ydpi="200">
  <defs
     id="defs4">
    <linearGradient
       id="linearGradient3311">
      <stop
         style="stop-color:#000000;stop-opacity:0;"
         offset="0"
         id="stop3313" />
      <stop
         id="stop3315"
         offset="1"
         style="stop-color:#000000;stop-opacity:1;" />
    </linearGradient>
    <linearGradient
       id="linearGradient2328">
      <stop
         style="stop-color:#ffffff;stop-opacity:1;"
         offset="0"
         id="stop2330" />
      <stop
         style="stop-color:#797979;stop-opacity:1;"
         offset="1"
         id="stop2332" />
    </linearGradient>
    <linearGradient
       id="linearGradient3256">
      <stop
         style="stop-color:#000000;stop-opacity:1;"
         offset="0"
         id="stop3258" />
      <stop
         style="stop-color:#000000;stop-opacity:0.09;"
         offset="1"
         id="stop3260" />
    </linearGradient>
    <linearGradient
       id="linearGradient3245">
      <stop
         style="stop-color:#e4ff38;stop-opacity:1;"
         offset="0"
         id="stop3247" />
      <stop
         style="stop-color:#e4ff38;stop-opacity:0;"
         offset="1"
         id="stop3249" />
    </linearGradient>
    <linearGradient
       id="linearGradient3233">
      <stop
         style="stop-color:#0f4213;stop-opacity:1;"
         offset="0"
         id="stop3235" />
      <stop
         style="stop-color:#00eb12;stop-opacity:1;"
         offset="1"
         id="stop3237" />
    </linearGradient>
    <linearGradient
       id="linearGradient6670">
      <stop
         style="stop-color:#cc502b;stop-opacity:1;"
         offset="0"
         id="stop6672" />
      <stop
         style="stop-color:#cc502b;stop-opacity:0;"
         offset="1"
         id="stop6674" />
    </linearGradient>
    <linearGradient
       id="linearGradient5741">
      <stop
         style="stop-color:#000000;stop-opacity:1;"
         offset="0"
         id="stop5743" />
      <stop
         style="stop-color:#000000;stop-opacity:0;"
         offset="1"
         id="stop5745" />
    </linearGradient>
    <linearGradient
       id="linearGradient4875">
      <stop
         style="stop-color:#525252;stop-opacity:1;"
         offset="0"
         id="stop4877" />
      <stop
         style="stop-color:#000000;stop-opacity:1;"
         offset="1"
         id="stop4879" />
    </linearGradient>
    <linearGradient
       id="linearGradient3117">
      <stop
         id="stop3119"
         offset="0"
         style="stop-color:#ffffff;stop-opacity:1;" />
      <stop
         id="stop3121"
         offset="1"
         style="stop-color:#df8b1d;stop-opacity:1;" />
    </linearGradient>
    <linearGradient
       id="linearGradient3983">
      <stop
         style="stop-color:#adadff;stop-opacity:1;"
         offset="0"
         id="stop3989" />
      <stop
         id="stop3991"
         offset="1"
         style="stop-color:#5f5fff;stop-opacity:1;" />
    </linearGradient>
    <linearGradient
       id="linearGradient11849">
      <stop
         style="stop-color:#ffffff;stop-opacity:0.94999999;"
         offset="0"
         id="stop11851" />
      <stop
         style="stop-color:#ffffff;stop-opacity:0.20999999;"
         offset="1"
         id="stop11853" />
    </linearGradient>
    <linearGradient
       id="linearGradient11843">
      <stop
         id="stop11845"
         offset="0"
         style="stop-color:#ffffff;stop-opacity:1;" />
      <stop
         id="stop11847"
         offset="1"
         style="stop-color:none" />
    </linearGradient>
    <linearGradient
       id="linearGradient10951">
      <stop
         id="stop10959"
         offset="0"
         style="stop-color:#fffff1;stop-opacity:1;" />
      <stop
         style="stop-color:#006700;stop-opacity:1;"
         offset="1"
         id="stop10955" />
    </linearGradient>
    <linearGradient
       id="linearGradient10943">
      <stop
         style="stop-color:#64ff00;stop-opacity:1;"
         offset="0"
         id="stop10945" />
      <stop
         style="stop-color:#005a00;stop-opacity:1;"
         offset="1"
         id="stop10947" />
    </linearGradient>
    <linearGradient
       id="linearGradient10935">
      <stop
         style="stop-color:#ff5000;stop-opacity:1;"
         offset="0"
         id="stop10937" />
      <stop
         style="stop-color:#760000;stop-opacity:1;"
         offset="1"
         id="stop10939" />
    </linearGradient>
    <linearGradient
       inkscape:collect="always"
       xlink:href="#linearGradient10935"
       id="linearGradient10941"
       x1="181.07143"
       y1="125.1462"
       x2="561.97266"
       y2="496.57477"
       gradientUnits="userSpaceOnUse"
       gradientTransform="matrix(0.498131,0,0,0.498131,67.05153,22.01408)" />
    <linearGradient
       inkscape:collect="always"
       xlink:href="#linearGradient10943"
       id="linearGradient10949"
       x1="381.07141"
       y1="797.98773"
       x2="106.30729"
       y2="589.28766"
       gradientUnits="userSpaceOnUse"
       gradientTransform="matrix(0.498131,0,0,0.498131,67.05153,22.01408)" />
    <linearGradient
       inkscape:collect="always"
       xlink:href="#linearGradient10951"
       id="linearGradient10957"
       x1="466.05667"
       y1="394.23096"
       x2="478.57138"
       y2="893.79071"
       gradientUnits="userSpaceOnUse"
       gradientTransform="matrix(0.498131,0,0,0.498131,59.90867,13.44265)" />
    <linearGradient
       inkscape:collect="always"
       xlink:href="#linearGradient10951"
       id="linearGradient10965"
       gradientUnits="userSpaceOnUse"
       x1="295.71429"
       y1="175.21931"
       x2="478.57138"
       y2="893.79071"
       gradientTransform="matrix(0.902778,0,0,0.892256,33.47222,50.5864)" />
    <linearGradient
       inkscape:collect="always"
       xlink:href="#linearGradient11849"
       id="linearGradient11841"
       gradientUnits="userSpaceOnUse"
       gradientTransform="matrix(0.449622,0,0,0.502433,75.18112,31.19705)"
       x1="232.4176"
       y1="63.143856"
       x2="323.37708"
       y2="366.92789" />
    <linearGradient
       inkscape:collect="always"
       xlink:href="#linearGradient3983"
       id="linearGradient3993"
       gradientUnits="userSpaceOnUse"
       gradientTransform="matrix(0.498131,0,0,0.498131,59.90867,13.44265)"
       x1="222.71043"
       y1="489.54156"
       x2="219.00206"
       y2="108.0614" />
    <radialGradient
       inkscape:collect="always"
       xlink:href="#linearGradient3117"
       id="radialGradient3123"
       cx="179.22722"
       cy="284.89078"
       fx="179.22722"
       fy="284.89078"
       r="89.907883"
       gradientTransform="matrix(1.492565,0.600887,-0.647501,1.608356,98.01598,-276.5632)"
       gradientUnits="userSpaceOnUse" />
    <radialGradient
       inkscape:collect="always"
       xlink:href="#linearGradient5741"
       id="radialGradient5747"
       cx="228.59056"
       cy="442.7486"
       fx="228.59056"
       fy="442.7486"
       r="180.3677"
       gradientTransform="matrix(1,0,0,0.371981,0,233.6472)"
       gradientUnits="userSpaceOnUse" />
    <linearGradient
       inkscape:collect="always"
       xlink:href="#linearGradient11849"
       id="linearGradient6689"
       gradientUnits="userSpaceOnUse"
       gradientTransform="matrix(0.43395,0,0,0.43898,82.286,39.70016)"
       x1="232.4176"
       y1="63.143856"
       x2="233.59584"
       y2="442.28671" />
    <linearGradient
       inkscape:collect="always"
       xlink:href="#linearGradient3233"
       id="linearGradient3239"
       x1="132.92651"
       y1="309.99612"
       x2="331.25461"
       y2="417.99612"
       gradientUnits="userSpaceOnUse" />
    <radialGradient
       inkscape:collect="always"
       xlink:href="#linearGradient3245"
       id="radialGradient3251"
       cx="141"
       cy="146.36218"
       fx="141"
       fy="146.36218"
       r="41"
       gradientTransform="matrix(1,0,0,0.97561,2.980255e-15,3.569809)"
       gradientUnits="userSpaceOnUse" />
    <radialGradient
       inkscape:collect="always"
       xlink:href="#linearGradient3245"
       id="radialGradient3254"
       gradientUnits="userSpaceOnUse"
       gradientTransform="matrix(1,0,0,0.97561,-1.186898e-14,3.569809)"
       cx="141"
       cy="146.36218"
       fx="141"
       fy="146.36218"
       r="41" />
    <radialGradient
       inkscape:collect="always"
       xlink:href="#linearGradient3256"
       id="radialGradient3262"
       cx="313.14728"
       cy="395.81625"
       fx="313.14728"
       fy="395.81625"
       r="89.90358"
       gradientTransform="matrix(1,0,0,0.235955,0,289.2601)"
       gradientUnits="userSpaceOnUse" />
    <linearGradient
       inkscape:collect="always"
       xlink:href="#linearGradient2328"
       id="linearGradient2334"
       x1="154.19258"
       y1="241.2368"
       x2="167.12752"
       y2="205.26334"
       gradientUnits="userSpaceOnUse" />
    <linearGradient
       inkscape:collect="always"
       xlink:href="#linearGradient3311"
       id="linearGradient3317"
       gradientUnits="userSpaceOnUse"
       gradientTransform="matrix(0.498131,0,0,0.498131,-452.0913,29.44265)"
       x1="478.57138"
       y1="787.52338"
       x2="478.57138"
       y2="893.79071" />
    <linearGradient
       inkscape:collect="always"
       xlink:href="#linearGradient3311"
       id="linearGradient3321"
       gradientUnits="userSpaceOnUse"
       gradientTransform="matrix(0.498131,0,0,0.498131,91.81826,-514.4669)"
       x1="478.57138"
       y1="787.52338"
       x2="478.57138"
       y2="893.79071" />
    <linearGradient
       inkscape:collect="always"
       xlink:href="#linearGradient3311"
       id="linearGradient3327"
       gradientUnits="userSpaceOnUse"
       gradientTransform="matrix(0.498131,0,0,0.498131,-452.0913,29.44265)"
       x1="478.57138"
       y1="787.52338"
       x2="478.57138"
       y2="893.79071" />
    <linearGradient
       inkscape:collect="always"
       xlink:href="#linearGradient3311"
       id="linearGradient3329"
       gradientUnits="userSpaceOnUse"
       gradientTransform="matrix(0.498131,0,0,0.498131,91.81826,-514.4669)"
       x1="478.57138"
       y1="787.52338"
       x2="478.57138"
       y2="893.79071" />
    <linearGradient
       inkscape:collect="always"
       xlink:href="#linearGradient3311"
       id="linearGradient3334"
       gradientUnits="userSpaceOnUse"
       gradientTransform="matrix(0.498131,0,0,0.498131,95.81826,-440.4669)"
       x1="478.57138"
       y1="787.52338"
       x2="478.57138"
       y2="893.79071" />
    <linearGradient
       inkscape:collect="always"
       xlink:href="#linearGradient3311"
       id="linearGradient3337"
       gradientUnits="userSpaceOnUse"
       gradientTransform="matrix(0.498131,0,0,0.498131,-378.0913,33.44265)"
       x1="478.57138"
       y1="787.52338"
       x2="478.57138"
       y2="893.79071" />
    <linearGradient
       inkscape:collect="always"
       xlink:href="#linearGradient3311"
       id="linearGradient3352"
       gradientUnits="userSpaceOnUse"
       gradientTransform="matrix(0.498131,0,0,0.498131,-378.0913,33.44265)"
       x1="478.57138"
       y1="787.52338"
       x2="478.57138"
       y2="893.79071" />
    <linearGradient
       inkscape:collect="always"
       xlink:href="#linearGradient3311"
       id="linearGradient3354"
       gradientUnits="userSpaceOnUse"
       gradientTransform="matrix(0.498131,0,0,0.498131,95.81826,-440.4669)"
       x1="478.57138"
       y1="787.52338"
       x2="478.57138"
       y2="893.79071" />
  </defs>
  <sodipodi:namedview
     id="base"
     pagecolor="#ffffff"
     bordercolor="#666666"
     borderopacity="1.0"
     inkscape:pageopacity="0.0"
     inkscape:pageshadow="2"
     inkscape:zoom="0.70710678"
     inkscape:cx="198.14443"
     inkscape:cy="803.89144"
     inkscape:document-units="px"
     inkscape:current-layer="layer3"
     inkscape:window-width="1024"
     inkscape:window-height="719"
     inkscape:window-x="-4"
     inkscape:window-y="-4"
     showguides="true"
     inkscape:guide-bbox="true" />
  <metadata
     id="metadata7">
    <rdf:RDF>
      <cc:Work
         rdf:about="">
        <dc:format>image/svg+xml</dc:format>
        <dc:type
           rdf:resource="http://purl.org/dc/dcmitype/StillImage" />
      </cc:Work>
    </rdf:RDF>
  </metadata>
  <g
     inkscape:groupmode="layer"
     id="layer4"
     inkscape:label="Background"
     style="display:inline"
     sodipodi:insensitive="true">
    <rect
       style="opacity:1;fill:url(#linearGradient10957);fill-opacity:1;fill-rule:nonzero;stroke:none;stroke-width:12.00515652;stroke-linecap:round;stroke-linejoin:miter;stroke-miterlimit:4;stroke-dasharray:none;stroke-dashoffset:0;stroke-opacity:1;display:inline"
       id="rect1338"
       width="399.92773"
       height="412.73682"
       x="31.444056"
       y="40.949081"
       ry="82.547363" />
    <path
       style="opacity:1;fill:url(#radialGradient5747);fill-opacity:1;fill-rule:evenodd;stroke:none;stroke-width:6.97848701;stroke-linecap:butt;stroke-linejoin:miter;stroke-miterlimit:4;stroke-dasharray:none;stroke-opacity:1;display:inline"
       d="M 200.7783,302.36898 C 340.62079,299.19074 391.35694,314.22966 406.15556,348.0308 C 422.15029,384.56394 370.81406,440.62235 223.02598,435.85499 C 83.029218,431.38701 48.222865,394.5379 48.222865,356.39903 C 48.222865,318.26018 145.15913,299.19074 200.7783,302.36898 z "
       id="path5739"
       sodipodi:nodetypes="csssc" />
    <path
       style="opacity:1;fill:url(#linearGradient10949);fill-opacity:1;fill-rule:evenodd;stroke:none;stroke-width:6.25;stroke-linecap:butt;stroke-linejoin:miter;stroke-miterlimit:4;stroke-dasharray:none;stroke-opacity:1;display:inline"
       d="M 203.68163,304.27875 C 328.92591,301.43229 374.36569,314.90129 387.61948,345.17392 C 401.94451,377.89335 355.96729,428.0998 223.60687,423.8301 C 98.224424,419.82854 67.05152,386.82612 67.05152,352.66858 C 67.05152,318.51106 153.86857,301.43229 203.68163,304.27875 z "
       id="path1324"
       sodipodi:nodetypes="csssc" />
    <path
       style="opacity:1;fill:url(#linearGradient3993);fill-opacity:1;fill-rule:nonzero;stroke:none;stroke-width:12.00515652;stroke-linecap:round;stroke-linejoin:miter;stroke-miterlimit:4;stroke-dashoffset:0;stroke-opacity:1;display:inline"
       d="M 113.99142,40.949081 L 348.82443,40.949081 C 394.55567,40.949081 431.37179,71.336829 431.37179,123.49644 C 255.60525,123.16281 364.7944,296.66162 31.444056,289.31617 L 31.444056,123.49644 C 31.444056,77.765205 68.26018,40.949081 113.99142,40.949081 z "
       id="rect3107"
       sodipodi:nodetypes="cccccc" />
    <path
       sodipodi:type="arc"
       style="opacity:1;fill:url(#radialGradient3262);fill-opacity:1;fill-rule:nonzero;stroke:none;stroke-width:0;stroke-linecap:round;stroke-linejoin:miter;stroke-miterlimit:4;stroke-dasharray:none;stroke-dashoffset:0;stroke-opacity:1;display:inline"
       id="path3105"
       sodipodi:cx="313.14728"
       sodipodi:cy="378.59042"
       sodipodi:rx="89.90358"
       sodipodi:ry="21.213203"
       d="M 403.05086 378.59042 A 89.90358 21.213203 0 1 1  223.2437,378.59042 A 89.90358 21.213203 0 1 1  403.05086 378.59042 z"
       transform="matrix(1,0,0,1.47619,-87.81148,-180.8011)" />
    <path
       style="opacity:0.34848483;fill:#000000;fill-opacity:1;fill-rule:evenodd;stroke:none;stroke-width:1px;stroke-linecap:butt;stroke-linejoin:miter;stroke-opacity:1;display:inline"
       d="M 142.85715,320.93361 C 107.85715,325.93361 69.285715,348.79076 70.714285,370.21932 C 72.099532,390.99803 128.92857,415.57646 161.42858,417.36218 C 84.031903,387.60729 124.58158,357.06632 144.58158,354.20918 C 164.58158,351.35204 142.85715,321.6479 142.85715,320.93361 z "
       id="path3103"
       sodipodi:nodetypes="cscsc" />
    <path
       style="opacity:0.22222224;fill:#ffffff;fill-opacity:1;fill-rule:evenodd;stroke:none;stroke-width:1px;stroke-linecap:butt;stroke-linejoin:miter;stroke-opacity:1;display:inline"
       d="M 306.78572,322.36219 C 333.57144,320.21933 402.39403,348.8337 379.64286,381.6479 C 361.07143,408.43361 328.03572,409.32647 302.14286,418.07647 C 329.46429,410.3979 351.42858,361.6479 305,357.36219 C 258.57143,353.07647 308.21429,321.6479 306.78572,322.36219 z "
       id="path3125"
       sodipodi:nodetypes="cscsc" />
    <path
       sodipodi:nodetypes="csssc"
       id="path3116"
       d="M 203.68163,304.27875 C 328.92591,301.43229 374.36569,314.90129 387.61948,345.17392 C 401.94451,377.89335 355.96729,428.0998 223.60687,423.8301 C 98.224424,419.82854 67.05152,386.82612 67.05152,352.66858 C 67.05152,318.51106 153.86857,301.43229 203.68163,304.27875 z "
       style="opacity:1;fill:none;fill-opacity:1;fill-rule:evenodd;stroke:url(#linearGradient3239);stroke-width:6.25;stroke-linecap:butt;stroke-linejoin:miter;stroke-miterlimit:4;stroke-dasharray:none;stroke-opacity:1;display:inline" />
    <path
       style="fill:#91bd89;fill-opacity:1;fill-rule:evenodd;stroke:none;stroke-width:0.75104409px;stroke-linecap:butt;stroke-linejoin:miter;stroke-opacity:1;display:inline"
       d="M 371.0856,309.76425 C 364.7402,298.80403 358.39483,279.76787 341.66607,290.72809 C 349.16516,273.42248 371.66245,288.99753 376.85413,298.80404 C 377.43099,277.46046 369.35503,275.15305 363.00965,268.80766 C 369.35503,269.38452 390.69862,283.22899 385.50693,300.5346 C 396.46715,281.49844 411.46534,283.229 414.3496,287.26697 C 403.38939,287.26697 401.65883,290.15124 394.73658,308.61054 C 373.39301,309.76425 372.2393,309.1874 371.0856,309.76425 z "
       id="path1376"
       sodipodi:nodetypes="cccccccc" />
    <path
       style="fill:#b7d4ad;fill-opacity:1;fill-rule:evenodd;stroke:none;stroke-width:0.75104409px;stroke-linecap:butt;stroke-linejoin:miter;stroke-opacity:1;display:inline"
       d="M 401.266,273.281 C 404.27949,264.58172 407.29297,249.47244 415.23761,258.17172 C 411.67622,244.43601 400.99205,256.79815 398.52647,264.58172 C 398.25252,247.64102 402.08786,245.8096 405.10134,240.77316 C 402.08786,241.23103 391.95159,252.21957 394.41718,265.95529 C 389.21207,250.84601 382.08928,252.21959 380.71952,255.42458 C 385.92463,255.42458 386.74649,257.71387 390.03393,272.36528 C 400.17019,273.281 400.7181,272.82315 401.266,273.281 z "
       id="path3126"
       sodipodi:nodetypes="cccccccc" />
    <path
       sodipodi:nodetypes="cccccccc"
       id="path3128"
       d="M 318.31458,297.8592 C 321.32807,292.65409 324.34155,283.61364 332.28619,288.81875 C 328.7248,280.60015 318.04063,287.99689 315.57505,292.65409 C 315.3011,282.51783 319.13644,281.42202 322.14992,278.40853 C 319.13644,278.68249 309.00017,285.25735 311.46576,293.47595 C 306.26065,284.4355 299.13786,285.25736 297.7681,287.17503 C 302.97321,287.17503 303.79507,288.5448 307.08251,297.31129 C 317.21877,297.8592 317.76668,297.58525 318.31458,297.8592 z "
       style="fill:#9fc596;fill-opacity:1;fill-rule:evenodd;stroke:none;stroke-width:0.75104409px;stroke-linecap:butt;stroke-linejoin:miter;stroke-opacity:1;display:inline" />
    <path
       sodipodi:nodetypes="cccccccc"
       id="path3130"
       d="M 123.87422,290.17851 C 126.88771,284.9734 129.90119,275.93295 137.84583,281.13806 C 134.28444,272.91946 123.60027,280.3162 121.13469,284.9734 C 120.86074,274.83714 124.69608,273.74133 127.70956,270.72784 C 124.69608,271.0018 114.55981,277.57666 117.0254,285.79526 C 111.82029,276.75481 104.6975,277.57667 103.32774,279.49434 C 108.53285,279.49434 109.35471,280.86411 112.64215,289.6306 C 122.77841,290.17851 123.32632,289.90456 123.87422,290.17851 z "
       style="fill:#a0c697;fill-opacity:1;fill-rule:evenodd;stroke:none;stroke-width:0.75104409px;stroke-linecap:butt;stroke-linejoin:miter;stroke-opacity:1;display:inline" />
    <path
       sodipodi:nodetypes="cccccccc"
       id="path3132"
       d="M 80.661206,323.20546 C 84.546394,312.45078 88.43157,293.77161 98.674325,304.52629 C 94.082743,287.54521 80.308011,302.82818 77.129224,312.45078 C 76.77603,291.50748 81.720801,289.24334 85.605977,283.01694 C 81.720801,283.58299 68.652458,297.16781 71.831258,314.14889 C 65.120489,295.46972 55.937322,297.16783 54.17134,301.13008 C 60.882106,301.13008 61.941702,303.96026 66.180085,322.07338 C 79.248416,323.20546 79.954817,322.63943 80.661206,323.20546 z "
       style="fill:#8bba84;fill-opacity:1;fill-rule:evenodd;stroke:none;stroke-width:0.75104409px;stroke-linecap:butt;stroke-linejoin:miter;stroke-opacity:1;display:inline" />
    <path
       sodipodi:nodetypes="cccccccc"
       id="path3134"
       d="M 52.379256,294.40288 C 49.701035,287.55345 47.022823,275.65709 39.96207,282.50651 C 43.127235,271.69162 52.622728,281.42502 54.813997,287.55345 C 55.057468,274.21511 51.648833,272.77313 48.970621,268.80766 C 51.648833,269.16817 60.657382,277.82005 58.466104,288.63494 C 63.092115,276.73858 69.422452,277.82007 70.639816,280.34354 C 66.013807,280.34354 65.283384,282.14602 62.361691,293.68188 C 53.35315,294.40288 52.866199,294.04239 52.379256,294.40288 z "
       style="fill:#9bc392;fill-opacity:1;fill-rule:evenodd;stroke:none;stroke-width:0.75104409px;stroke-linecap:butt;stroke-linejoin:miter;stroke-opacity:1;display:inline" />
    <path
       style="opacity:0.15;fill:#ffffff;fill-opacity:1;fill-rule:evenodd;stroke:none;stroke-width:1px;stroke-linecap:butt;stroke-linejoin:miter;stroke-opacity:1;display:inline"
       d="M 377.12444,93.630276 C 413.92604,95.093891 427.21987,87.07677 410.22674,85.966178 C 415.52288,85.517871 425.13025,78.981107 398.77578,78.391515 C 417.83933,76.636205 392.13472,62.951427 378.85353,71.675542 C 397.0331,60.034961 331.96439,59.784 345.61218,71.562704 C 321.4859,67.043562 293.31993,73.912169 319.61775,81.221361 C 300.6427,87.925631 337.41903,87.975259 349.38735,84.932375 C 314.82389,99.871602 388.75215,101.20178 377.12444,93.630276 z "
       id="path1419"
       sodipodi:nodetypes="cccccccc" />
    <path
       sodipodi:nodetypes="cccccccc"
       id="path2297"
       d="M 111.77084,186.40219 C 148.60153,186.381 161.56135,177.83447 144.53726,177.40984 C 149.81102,176.74839 159.14706,169.82963 132.79024,170.30297 C 151.76753,167.78056 125.53213,155.14316 112.61344,164.3956 C 130.30896,152.03159 65.283035,154.40401 79.394575,165.62294 C 55.105725,162.0801 27.239545,170.0786 53.810655,176.32168 C 35.121305,183.78546 71.869735,182.35245 83.705655,178.82955 C 49.772555,195.15002 123.69433,193.49878 111.77084,186.40219 z "
       style="opacity:0.1;fill:#ffffff;fill-opacity:1;fill-rule:evenodd;stroke:none;stroke-width:1px;stroke-linecap:butt;stroke-linejoin:miter;stroke-opacity:1;display:inline" />
    <path
       style="opacity:0.15;fill:#ffffff;fill-opacity:1;fill-rule:evenodd;stroke:none;stroke-width:1px;stroke-linecap:butt;stroke-linejoin:miter;stroke-opacity:1;display:inline"
       d="M 65.25,71.25 C 59.26942,71.29889 53.405464,71.818173 48.84375,72.6875 C 38.772384,85.599821 32.475304,101.61111 31.5625,119.09375 C 34.491918,118.35925 37.308311,117.16482 39.8125,115.34375 C 17.807984,134.31703 107.45386,130.4091 87.71875,112.6875 C 122.09932,118.35179 161.51733,105.57515 123.90625,95.59375 C 150.36079,83.660689 98.34735,85.96135 81.59375,91.59375 C 109.17456,76.610614 86.434223,71.076823 65.25,71.25 z M 40.25,115 C 40.111982,115.11362 39.973948,115.23173 39.84375,115.34375 C 39.984905,115.24087 40.110853,115.10674 40.25,115 z "
       id="path2295" />
  </g>
  <g
     inkscape:groupmode="layer"
     id="layer2"
     inkscape:label="mashroom"
     style="display:inline">
    <path
       style="fill:url(#linearGradient2334);fill-opacity:1;fill-rule:evenodd;stroke:#000000;stroke-width:6.25;stroke-linecap:butt;stroke-linejoin:miter;stroke-miterlimit:4;stroke-dasharray:none;stroke-opacity:1"
       d="M 190.87257,235.96369 C 156.71504,244.50308 83.778484,227.06183 83.778484,192.9043 C 83.778484,158.74677 186.60287,177.61125 186.60287,177.61125 L 190.87257,235.96369 z "
       id="path1322"
       sodipodi:nodetypes="cscc" />
    <path
       sodipodi:nodetypes="csssc"
       id="path3127"
       d="M 203.68163,304.27875 C 328.92591,301.43229 374.36569,314.90129 387.61948,345.17392 C 401.94451,377.89335 355.96729,428.0998 223.60687,423.8301 C 98.224424,419.82854 67.05152,386.82612 67.05152,352.66858 C 67.05152,318.51106 153.86857,301.43229 203.68163,304.27875 z "
       style="opacity:1;fill:none;fill-opacity:1;fill-rule:evenodd;stroke:none;stroke-width:6.25;stroke-linecap:butt;stroke-linejoin:miter;stroke-miterlimit:4;stroke-dasharray:none;stroke-opacity:1" />
    <path
       style="opacity:1;fill:url(#radialGradient3123);fill-opacity:1;fill-rule:evenodd;stroke:none;stroke-width:6.25;stroke-linecap:butt;stroke-linejoin:miter;stroke-miterlimit:4;stroke-dasharray:none;stroke-opacity:1"
       d="M 159.5615,183.30417 C 183.75641,240.23338 179.48673,272.96768 156.71504,300.00906 C 133.94334,327.05044 136.74473,361.18994 173.7938,382.55642 C 217.38328,407.6948 274.8485,392.53505 291.92727,374.03306 C 309.00603,355.53106 318.9633,339.85951 301.88453,304.27875 C 284.80577,268.69799 283.38254,255.88892 290.4987,224.57785 C 297.61484,193.26678 160.98473,184.7274 159.5615,183.30417 z "
       id="path1320"
       sodipodi:nodetypes="csssssc" />
    <path
       style="opacity:0.53569025;fill:#ae6c16;fill-opacity:1;fill-rule:evenodd;stroke:none;stroke-width:0.60025787px;stroke-linecap:butt;stroke-linejoin:miter;stroke-opacity:1"
       d="M 299.03808,301.43229 C 296.36952,295.20566 290.89898,290.00197 284.0052,285.69892 C 280.55832,283.5474 260.01323,276.49105 253.88422,276.56027 C 265.07663,275.9152 266.03701,275.8192 261.85627,274.50716 C 245.13331,269.259 226.80913,267.98637 220.76041,267.98637 C 240.68563,260.15861 276.26639,244.50308 280.53608,228.84754 C 289.78708,263.00507 291.21031,277.94899 299.03808,301.43229 z "
       id="path5691"
       sodipodi:nodetypes="csccccc" />
    <path
       style="opacity:0.53569025;fill:#ae6c16;fill-opacity:1;fill-rule:evenodd;stroke:none;stroke-width:0.60025787px;stroke-linecap:butt;stroke-linejoin:miter;stroke-opacity:1"
       d="M 170.87057,278.75607 C 176.5261,267.31215 195.14226,230.98239 233.56947,223.15462 C 271.99669,215.32685 221.47202,184.7274 221.47202,184.7274 C 221.47202,184.7274 163.11957,179.74609 167.38926,200.38293 C 171.65895,221.01978 178.69834,258.83084 170.87057,278.75607 z "
       id="path7439"
       sodipodi:nodetypes="cscsc" />
    <path
       style="opacity:0.53569025;fill:#ae6c16;fill-opacity:1;fill-rule:evenodd;stroke:none;stroke-width:0.60025787px;stroke-linecap:butt;stroke-linejoin:miter;stroke-opacity:1"
       d="M 141.0595,339.1479 C 141.06618,363.37753 185.17964,401.05842 231.43463,393.23065 C 279.83248,390.04575 297.79275,368.14621 306.86584,349.11051 C 313.982,324.9156 307.39955,319.04476 299.21598,299.29745 C 298.78729,324.53089 299.9623,342.87586 284.98367,355.69295 C 277.86752,353.3802 277.86752,336.12354 275.37687,318.33316 C 275.55478,330.25271 271.8188,355.87086 261.14456,363.69863 C 262.9236,353.91391 259.00972,335.23401 256.16326,325.2714 C 253.6726,341.10484 255.80746,366.18927 240.15192,374.55076 C 231.43463,372.238 230.01141,355.69295 229.12189,346.61986 C 225.91961,357.47199 222.00573,370.99268 218.80346,373.83914 C 215.24539,367.79041 215.06748,333.63288 214.88958,322.42494 C 213.11054,329.18528 209.19666,364.58814 204.21535,370.10316 C 200.65728,366.54508 197.2771,351.24535 194.96435,344.48501 C 194.78645,350.35584 196.56549,363.34281 194.25274,367.2567 C 178.92497,363.1312 176.64027,323.67027 177.35187,324.20398 C 175.03913,332.20965 176.10654,360.85216 172.19266,361.74168 C 166.49974,356.58247 161.87425,347.15356 161.51844,329.18528 C 159.02779,336.83514 159.7394,353.02439 158.13827,357.64989 C 156.00342,355.69295 150.1326,330.43061 153.15696,319.93429 C 145.15129,330.25271 149.24308,343.7734 149.59889,350.53374 C 145.685,347.33147 143.19435,343.59549 141.0595,339.1479 z "
       id="path8314"
       sodipodi:nodetypes="cccccccccccccccccccccc" />
    <path
       sodipodi:nodetypes="csssssc"
       id="path5737"
       d="M 153.90465,190.37524 C 190.82748,224.67703 172.70914,277.01203 156.71504,300.00906 C 140.75887,322.95157 137.09828,360.83638 173.7938,382.55642 C 217.0958,408.18683 274.8485,392.53505 291.92727,374.03306 C 309.00603,355.53106 318.9633,339.85951 301.88453,304.27875 C 284.80577,268.69799 283.38254,255.88892 290.4987,224.57785 C 297.61484,193.26678 183.61215,200.28375 153.90465,190.37524 z "
       style="opacity:1;fill:none;fill-opacity:1;fill-rule:evenodd;stroke:#b97216;stroke-width:6.25;stroke-linecap:butt;stroke-linejoin:miter;stroke-miterlimit:4;stroke-dasharray:none;stroke-opacity:1" />
    <path
       style="fill:url(#linearGradient10941);fill-opacity:1;fill-rule:evenodd;stroke:#510000;stroke-width:6.25;stroke-linecap:butt;stroke-linejoin:miter;stroke-miterlimit:4;stroke-dasharray:none;stroke-opacity:1"
       d="M 257.76439,62.329584 C 350.9403,71.027186 404.35712,170.49509 375.89252,237.38692 C 347.42791,304.27875 286.229,257.31215 286.229,257.31215 C 286.229,257.31215 237.83917,207.49909 175.21703,214.61524 C 112.5949,221.73139 81.283825,224.57785 81.283825,176.18802 C 81.283825,136.31216 131.09689,55.213432 257.76439,62.329584 z "
       id="path1318"
       sodipodi:nodetypes="cscssc" />
    <path
       sodipodi:nodetypes="csc"
       id="path4013"
       d="M 203.21408,103.75825 C 226.13998,95.216708 237.14183,72.880568 186.25022,85.594906 C 151.24474,94.340391 164.28871,121.72564 203.21408,103.75825 z "
       style="opacity:0.40909089;fill:#000000;fill-opacity:1;fill-rule:evenodd;stroke:none;stroke-width:7.58122778;stroke-linecap:butt;stroke-linejoin:miter;stroke-miterlimit:4;stroke-dasharray:none;stroke-opacity:1" />
    <path
       style="opacity:0.65656565;fill:#ffffff;fill-opacity:1;fill-rule:evenodd;stroke:none;stroke-width:1px;stroke-linecap:butt;stroke-linejoin:miter;stroke-opacity:1"
       d="M 202.48218,78.497099 C 147.26477,80.759769 97.995667,141.91112 101.63891,162.40682 C 111.04842,179.17799 132.92423,100.37238 202.48218,78.497099 z "
       id="path2228"
       sodipodi:nodetypes="ccc" />
    <path
       id="path5771"
       d="M 130.24418,150.51276 C 166.51894,130.40423 182.97207,136.86504 155.7828,164.80874 C 128.59352,192.75244 93.845412,180.17438 130.24418,150.51276 z "
       style="opacity:0.4;fill:#000000;fill-opacity:1;fill-rule:evenodd;stroke:none;stroke-width:6.25;stroke-linecap:butt;stroke-linejoin:miter;stroke-miterlimit:4;stroke-dasharray:none;stroke-opacity:1" />
    <path
       style="fill:#ffffff;fill-opacity:1;fill-rule:evenodd;stroke:#b50000;stroke-width:6.25;stroke-linecap:butt;stroke-linejoin:miter;stroke-miterlimit:4;stroke-dasharray:none;stroke-opacity:1"
       d="M 131.05571,150.69861 C 158.60984,135.42427 171.10755,140.33187 150.45472,161.55776 C 129.80188,182.78366 103.40739,173.22943 131.05571,150.69861 z "
       id="path1326" />
    <path
       style="fill:#ffffff;fill-opacity:1;fill-rule:evenodd;stroke:#b50000;stroke-width:6.25;stroke-linecap:butt;stroke-linejoin:miter;stroke-miterlimit:4;stroke-dasharray:none;stroke-opacity:1"
       d="M 200.2584,99.333574 C 219.49271,92.640656 228.72302,75.13866 186.0261,85.101272 C 156.65728,91.953997 167.60088,113.41234 200.2584,99.333574 z "
       id="path1328"
       sodipodi:nodetypes="csc" />
    <path
       sodipodi:nodetypes="csc"
       id="path5765"
       d="M 247.58968,156.73362 C 279.65666,167.42261 280.54405,127.30881 250.25858,129.09031 C 219.9731,130.87181 208.39669,149.60763 247.58968,156.73362 z "
       style="opacity:0.5;fill:#000000;fill-opacity:1;fill-rule:evenodd;stroke:none;stroke-width:6.25;stroke-linecap:butt;stroke-linejoin:miter;stroke-miterlimit:4;stroke-dasharray:none;stroke-opacity:1" />
    <path
       style="fill:#ffffff;fill-opacity:1;fill-rule:evenodd;stroke:#8c0000;stroke-width:6.25;stroke-linecap:butt;stroke-linejoin:miter;stroke-miterlimit:4;stroke-dasharray:none;stroke-opacity:1"
       d="M 247.56414,150.13062 C 273.18229,158.67 273.89122,126.62329 249.69631,128.04652 C 225.50139,129.46975 216.25306,144.4377 247.56414,150.13062 z "
       id="path1330"
       sodipodi:nodetypes="csc" />
    <path
       style="opacity:0.25757578;fill:#000000;fill-opacity:1;fill-rule:evenodd;stroke:none;stroke-width:1px;stroke-linecap:butt;stroke-linejoin:miter;stroke-opacity:1"
       d="M 338.14286,114.50504 C 386.00001,165.21932 382.85715,228.79075 349.28572,257.36218 C 315.71429,285.93361 274.28572,220.93362 235.35715,214.1479 C 290.35715,212.00504 312.01493,231.53751 332.14286,213.07647 C 344.74578,201.51726 367.42857,166.64789 338.14286,114.50504 z "
       id="path2226"
       sodipodi:nodetypes="cscsc" />
    <path
       sodipodi:nodetypes="csc"
       id="path3241"
       d="M 251.49073,223.99298 C 283.4711,246.37923 297.07777,217.57289 268.29542,201.58271 C 239.5131,185.59252 206.71821,204.80475 251.49073,223.99298 z "
       style="opacity:0.38888891;fill:#000000;fill-opacity:1;fill-rule:evenodd;stroke:none;stroke-width:6.25;stroke-linecap:butt;stroke-linejoin:miter;stroke-miterlimit:4;stroke-dasharray:none;stroke-opacity:1" />
    <path
       style="fill:#ffffff;fill-opacity:1;fill-rule:evenodd;stroke:#6c0000;stroke-width:6.25;stroke-linecap:butt;stroke-linejoin:miter;stroke-miterlimit:4;stroke-dasharray:none;stroke-opacity:1"
       d="M 252.07147,218.88493 C 280.53608,238.81015 292.6469,213.17064 267.02874,198.93834 C 241.4106,184.70603 212.22102,201.80616 252.07147,218.88493 z "
       id="path1332"
       sodipodi:nodetypes="csc" />
    <path
       sodipodi:nodetypes="csc"
       id="path6648"
       d="M 319.90736,219.70455 C 349.15329,254.43408 359.69286,219.99948 350.98116,206.90946 C 336.35134,184.92699 291.5788,178.61519 319.90736,219.70455 z "
       style="opacity:0.38888891;fill:#000000;fill-opacity:1;fill-rule:evenodd;stroke:none;stroke-width:6.25;stroke-linecap:butt;stroke-linejoin:miter;stroke-miterlimit:4;stroke-dasharray:none;stroke-opacity:1" />
    <path
       style="fill:#ffffff;fill-opacity:1;fill-rule:evenodd;stroke:#6c0000;stroke-width:6.25;stroke-linecap:butt;stroke-linejoin:miter;stroke-miterlimit:4;stroke-dasharray:none;stroke-opacity:1"
       d="M 324.65622,216.03847 C 347.42791,243.07984 355.63431,216.26811 348.85114,206.07586 C 337.45996,188.9597 302.59882,184.04516 324.65622,216.03847 z "
       id="path1334"
       sodipodi:nodetypes="csc" />
    <path
       sodipodi:nodetypes="csc"
       id="path5767"
       d="M 270.59274,105.19649 C 311.56147,121.65703 313.54462,94.218532 285.28855,82.254883 C 249.96086,67.2971 233.29418,89.305004 270.59274,105.19649 z "
       style="opacity:0.5;fill:#000000;fill-opacity:1;fill-rule:evenodd;stroke:none;stroke-width:6.25;stroke-linecap:butt;stroke-linejoin:miter;stroke-miterlimit:4;stroke-dasharray:none;stroke-opacity:1" />
    <path
       style="fill:#ffffff;fill-opacity:1;fill-rule:evenodd;stroke:#8c0000;stroke-width:6.25;stroke-linecap:butt;stroke-linejoin:miter;stroke-miterlimit:4;stroke-dasharray:none;stroke-opacity:1"
       d="M 271.85435,98.908254 C 304.59962,112.06475 306.1847,90.133851 283.60034,80.571609 C 255.36381,68.616231 242.04255,86.206592 271.85435,98.908254 z "
       id="path1336"
       sodipodi:nodetypes="csc" />
    <path
       id="path6646"
       d="M 323.32353,158.50086 C 355.72163,178.96283 357.4268,141.44923 340.37517,134.62858 C 323.32353,127.80793 275.57897,127.80793 323.32353,158.50086 z "
       style="opacity:0.33999993;fill:#000000;fill-opacity:1;fill-rule:evenodd;stroke:none;stroke-width:6.25;stroke-linecap:butt;stroke-linejoin:miter;stroke-miterlimit:4;stroke-dasharray:none;stroke-opacity:1" />
    <path
       style="fill:#ffffff;fill-opacity:1;fill-rule:evenodd;stroke:#820000;stroke-width:6.25;stroke-linecap:butt;stroke-linejoin:miter;stroke-miterlimit:4;stroke-dasharray:none;stroke-opacity:1"
       d="M 321.91124,152.72341 C 348.95262,169.80218 350.37585,138.4911 336.14355,132.79818 C 321.91124,127.10526 282.06079,127.10526 321.91124,152.72341 z "
       id="path2213" />
    <path
       sodipodi:nodetypes="csc"
       id="path5769"
       d="M 194.75933,190.47804 C 158.06569,195.5025 171.22005,162.42277 183.6924,158.88628 C 204.63758,152.94734 234.48713,180.0754 194.75933,190.47804 z "
       style="opacity:0.49595959;fill:#000000;fill-opacity:1;fill-rule:evenodd;stroke:none;stroke-width:6.00233936;stroke-linecap:butt;stroke-linejoin:miter;stroke-miterlimit:4;stroke-dasharray:none;stroke-opacity:1;display:inline" />
    <path
       style="fill:#ffffff;fill-opacity:1;fill-rule:evenodd;stroke:#920000;stroke-width:6.00233936;stroke-linecap:butt;stroke-linejoin:miter;stroke-miterlimit:4;stroke-dasharray:none;stroke-opacity:1;display:inline"
       d="M 194.35306,183.5724 C 164.34106,187.68195 175.10011,160.62579 185.30133,157.73327 C 202.43255,152.87577 226.84672,175.06401 194.35306,183.5724 z "
       id="path3138"
       sodipodi:nodetypes="csc" />
    <path
       sodipodi:type="arc"
       style="opacity:0.38888891;fill:#b12200;fill-opacity:1;fill-rule:nonzero;stroke:none;stroke-width:1;stroke-linecap:round;stroke-linejoin:miter;stroke-miterlimit:4;stroke-dasharray:none;stroke-dashoffset:0;stroke-opacity:1"
       id="path6650"
       sodipodi:cx="523"
       sodipodi:cy="178.36218"
       sodipodi:rx="14"
       sodipodi:ry="8"
       d="M 537 178.36218 A 14 8 0 1 1  509,178.36218 A 14 8 0 1 1  537 178.36218 z"
       transform="matrix(0.931578,-0.363542,0.363542,0.931578,-356.0573,146.3367)" />
    <path
       sodipodi:type="arc"
       style="opacity:0.38888891;fill:#a11900;fill-opacity:1;fill-rule:nonzero;stroke:none;stroke-width:1;stroke-linecap:round;stroke-linejoin:miter;stroke-miterlimit:4;stroke-dasharray:none;stroke-dashoffset:0;stroke-opacity:1;display:inline"
       id="path6652"
       sodipodi:cx="523"
       sodipodi:cy="178.36218"
       sodipodi:rx="14"
       sodipodi:ry="8"
       d="M 537 178.36218 A 14 8 0 1 1  509,178.36218 A 14 8 0 1 1  537 178.36218 z"
       transform="matrix(0.995258,9.726817e-2,-9.726817e-2,0.995258,-258.2947,-125.5133)" />
    <path
       sodipodi:type="arc"
       style="opacity:0.38888891;fill:#7e0500;fill-opacity:1;fill-rule:nonzero;stroke:none;stroke-width:1;stroke-linecap:round;stroke-linejoin:miter;stroke-miterlimit:4;stroke-dasharray:none;stroke-dashoffset:0;stroke-opacity:1;display:inline"
       id="path6654"
       sodipodi:cx="523"
       sodipodi:cy="178.36218"
       sodipodi:rx="14"
       sodipodi:ry="8"
       d="M 537 178.36218 A 14 8 0 1 1  509,178.36218 A 14 8 0 1 1  537 178.36218 z"
       transform="matrix(1.088884,0.406592,-0.363365,1.218421,-205.6759,-259.1055)" />
    <path
       sodipodi:type="arc"
       style="opacity:0.38888891;fill:#be2a00;fill-opacity:1;fill-rule:nonzero;stroke:none;stroke-width:1;stroke-linecap:round;stroke-linejoin:miter;stroke-miterlimit:4;stroke-dasharray:none;stroke-dashoffset:0;stroke-opacity:1;display:inline"
       id="path6656"
       sodipodi:cx="523"
       sodipodi:cy="178.36218"
       sodipodi:rx="14"
       sodipodi:ry="8"
       d="M 537 178.36218 A 14 8 0 1 1  509,178.36218 A 14 8 0 1 1  537 178.36218 z"
       transform="matrix(-0.473241,-1.061616,1.123706,-0.594868,149.1139,851.5955)" />
    <path
       sodipodi:type="arc"
       style="opacity:0.38888891;fill:#9c1600;fill-opacity:1;fill-rule:nonzero;stroke:none;stroke-width:1;stroke-linecap:round;stroke-linejoin:miter;stroke-miterlimit:4;stroke-dasharray:none;stroke-dashoffset:0;stroke-opacity:1;display:inline"
       id="path6658"
       sodipodi:cx="523"
       sodipodi:cy="178.36218"
       sodipodi:rx="14"
       sodipodi:ry="8"
       d="M 537 178.36218 A 14 8 0 1 1  509,178.36218 A 14 8 0 1 1  537 178.36218 z"
       transform="matrix(1.30725,0.108921,0.126853,1.565412,-471.8177,-161.3135)" />
    <path
       sodipodi:type="arc"
       style="opacity:0.38888891;fill:#5c0200;fill-opacity:1;fill-rule:nonzero;stroke:none;stroke-width:1;stroke-linecap:round;stroke-linejoin:miter;stroke-miterlimit:4;stroke-dasharray:none;stroke-dashoffset:0;stroke-opacity:1;display:inline"
       id="path6660"
       sodipodi:cx="523"
       sodipodi:cy="178.36218"
       sodipodi:rx="14"
       sodipodi:ry="8"
       d="M 537 178.36218 A 14 8 0 1 1  509,178.36218 A 14 8 0 1 1  537 178.36218 z"
       transform="matrix(0.800834,0.598887,-0.598887,0.800834,10.98263,-347.694)" />
    <path
       sodipodi:type="arc"
       style="opacity:0.38888891;fill:#b12200;fill-opacity:1;fill-rule:nonzero;stroke:none;stroke-width:1;stroke-linecap:round;stroke-linejoin:miter;stroke-miterlimit:4;stroke-dasharray:none;stroke-dashoffset:0;stroke-opacity:1;display:inline"
       id="path6662"
       sodipodi:cx="523"
       sodipodi:cy="178.36218"
       sodipodi:rx="14"
       sodipodi:ry="8"
       d="M 537 178.36218 A 14 8 0 1 1  509,178.36218 A 14 8 0 1 1  537 178.36218 z"
       transform="matrix(0.571391,-8.270396e-3,5.400883e-3,0.874973,-154.8005,39.62556)" />
    <path
       sodipodi:type="arc"
       style="opacity:0.38888891;fill:#b12200;fill-opacity:1;fill-rule:nonzero;stroke:none;stroke-width:1;stroke-linecap:round;stroke-linejoin:miter;stroke-miterlimit:4;stroke-dasharray:none;stroke-dashoffset:0;stroke-opacity:1;display:inline"
       id="path6664"
       sodipodi:cx="523"
       sodipodi:cy="178.36218"
       sodipodi:rx="14"
       sodipodi:ry="8"
       d="M 537 178.36218 A 14 8 0 1 1  509,178.36218 A 14 8 0 1 1  537 178.36218 z"
       transform="matrix(0.999122,-4.190966e-2,4.190966e-2,0.999122,-317.0156,-83.92453)" />
    <path
       sodipodi:type="arc"
       style="opacity:0.38888891;fill:#cc502b;fill-opacity:1;fill-rule:nonzero;stroke:none;stroke-width:1;stroke-linecap:round;stroke-linejoin:miter;stroke-miterlimit:4;stroke-dasharray:none;stroke-dashoffset:0;stroke-opacity:1;display:inline"
       id="path6666"
       sodipodi:cx="523"
       sodipodi:cy="178.36218"
       sodipodi:rx="14"
       sodipodi:ry="8"
       d="M 537 178.36218 A 14 8 0 1 1  509,178.36218 A 14 8 0 1 1  537 178.36218 z"
       transform="matrix(0.524523,-0.424044,0.46627,0.477021,-228.9905,247.0543)" />
  </g>
  <g
     inkscape:groupmode="layer"
     id="layer5"
     inkscape:label="border"
     sodipodi:insensitive="true"
     style="display:inline">
    <rect
       ry="82.547363"
       y="40.949081"
       x="31.444056"
       height="412.73682"
       width="399.92773"
       id="rect2234"
       style="opacity:1;fill:none;fill-opacity:1;fill-rule:nonzero;stroke:#000000;stroke-width:12.00515652;stroke-linecap:round;stroke-linejoin:miter;stroke-miterlimit:4;stroke-dasharray:none;stroke-dashoffset:0;stroke-opacity:1;display:inline"
       inkscape:export-filename="C:\Documents and Settings\felis.OFFICE\My Documents\mashroom.128.png"
       inkscape:export-xdpi="27.969999"
       inkscape:export-ydpi="27.969999" />
    <g
       style="display:inline"
       id="g3342"
       transform="translate(438,-20)">
      <rect
         style="opacity:0.15;fill:url(#linearGradient3352);fill-opacity:1;fill-rule:nonzero;stroke:none;stroke-width:12.00515652;stroke-linecap:round;stroke-linejoin:miter;stroke-miterlimit:4;stroke-dasharray:none;stroke-dashoffset:0;stroke-opacity:1;display:inline"
         id="rect3309"
         width="399.92773"
         height="412.73682"
         x="-406.55594"
         y="60.949081"
         ry="82.547363" />
      <rect
         transform="matrix(0,1,1,0,0,0)"
         ry="82.547363"
         y="-412.96048"
         x="67.353622"
         height="412.73682"
         width="399.92773"
         id="rect3319"
         style="opacity:0.15;fill:url(#linearGradient3354);fill-opacity:1;fill-rule:nonzero;stroke:none;stroke-width:12.00515652;stroke-linecap:round;stroke-linejoin:miter;stroke-miterlimit:4;stroke-dasharray:none;stroke-dashoffset:0;stroke-opacity:1;display:inline" />
    </g>
  </g>
  <g
     inkscape:groupmode="layer"
     id="layer3"
     inkscape:label="luminance"
     style="display:inline">
    <path
       style="opacity:0.62121212;fill:url(#linearGradient11841);fill-opacity:1;fill-rule:nonzero;stroke:none;stroke-width:20.00000381;stroke-linecap:round;stroke-linejoin:miter;stroke-miterlimit:4;stroke-dashoffset:0;stroke-opacity:1"
       d="M 123.12876,58.941084 L 336.83007,58.941084 C 377.6268,58.941084 412.32876,84.703811 410.47038,142.20144 C 161.71492,139.06073 218.58433,259.60127 49.488452,256.83749 L 49.488452,142.20144 C 49.488452,96.075207 82.33203,58.941084 123.12876,58.941084 z "
       id="rect10963"
       sodipodi:nodetypes="cccccc" />
    <path
       style="opacity:0.59595959;fill:url(#linearGradient6689);fill-opacity:1;fill-rule:nonzero;stroke:none;stroke-width:20.00000381;stroke-linecap:round;stroke-linejoin:miter;stroke-miterlimit:4;stroke-dashoffset:0;stroke-opacity:1"
       d="M 127.65396,63.937246 C 88.70728,64.438741 57.499999,96.68747 57.5,136.67355 L 57.5,236.84978 C 60.468069,236.89369 63.359412,236.90313 66.186303,236.87708 L 66.186303,144.53693 C 66.186302,104.236 97.870336,71.80063 137.24509,71.80063 L 343.51462,71.80063 C 360.94615,71.800629 377.20675,76.203737 389.78125,85.479641 C 376.57734,70.825505 356.60596,63.937245 334.82832,63.937246 L 128.55878,63.937246 C 128.25117,63.937246 127.96063,63.933297 127.65396,63.937246 z "
       id="path6682" />
  </g>
</svg>
