<?xml version="1.0" encoding="UTF-8" standalone="no"?>
<!-- Created with Inkscape (http://www.inkscape.org/) -->
<svg
   xmlns:dc="http://purl.org/dc/elements/1.1/"
   xmlns:cc="http://web.resource.org/cc/"
   xmlns:rdf="http://www.w3.org/1999/02/22-rdf-syntax-ns#"
   xmlns:svg="http://www.w3.org/2000/svg"
   xmlns="http://www.w3.org/2000/svg"
   xmlns:xlink="http://www.w3.org/1999/xlink"
   xmlns:sodipodi="http://inkscape.sourceforge.net/DTD/sodipodi-0.dtd"
   xmlns:inkscape="http://www.inkscape.org/namespaces/inkscape"
   width="744.09448819"
   height="1052.3622047"
   id="svg2"
   sodipodi:version="0.32"
   inkscape:version="0.43"
   sodipodi:docbase="C:\Program Files\xampp\htdocs\phtagr\themes\default"
   sodipodi:docname="icons.svg"
   inkscape:export-filename="C:\Program Files\xampp\htdocs\phtagr\themes\default\icons.png"
   inkscape:export-xdpi="200"
   inkscape:export-ydpi="200">
  <defs
     id="defs4">
    <linearGradient
       id="linearGradient3213">
      <stop
         style="stop-color:#ffff00;stop-opacity:1;"
         offset="0"
         id="stop3215" />
      <stop
         style="stop-color:#cc0a00;stop-opacity:1;"
         offset="1"
         id="stop3217" />
    </linearGradient>
    <linearGradient
       id="linearGradient6628">
      <stop
         style="stop-color:#000000;stop-opacity:1;"
         offset="0"
         id="stop6630" />
      <stop
         style="stop-color:#000000;stop-opacity:0;"
         offset="1"
         id="stop6632" />
    </linearGradient>
    <linearGradient
       id="linearGradient6602">
      <stop
         style="stop-color:#ffffff;stop-opacity:1;"
         offset="0"
         id="stop6604" />
      <stop
         style="stop-color:#ffffff;stop-opacity:0.34;"
         offset="1"
         id="stop6606" />
    </linearGradient>
    <linearGradient
       inkscape:collect="always"
       xlink:href="#linearGradient6602"
       id="linearGradient6608"
       x1="179.17316"
       y1="201.36722"
       x2="192.49748"
       y2="251.09427"
       gradientUnits="userSpaceOnUse" />
    <linearGradient
       inkscape:collect="always"
       xlink:href="#linearGradient6602"
       id="linearGradient6612"
       gradientUnits="userSpaceOnUse"
       x1="179.17316"
       y1="201.36722"
       x2="192.49748"
       y2="251.09427"
       gradientTransform="translate(180,0)" />
    <linearGradient
       inkscape:collect="always"
       xlink:href="#linearGradient6602"
       id="linearGradient6616"
       gradientUnits="userSpaceOnUse"
       x1="179.17316"
       y1="201.36722"
       x2="192.49748"
       y2="251.09427"
       gradientTransform="translate(0,179)" />
    <linearGradient
       inkscape:collect="always"
       xlink:href="#linearGradient6602"
       id="linearGradient6620"
       gradientUnits="userSpaceOnUse"
       gradientTransform="translate(180,179)"
       x1="179.17316"
       y1="201.36722"
       x2="192.49748"
       y2="251.09427" />
    <linearGradient
       inkscape:collect="always"
       xlink:href="#linearGradient6602"
       id="linearGradient6624"
       gradientUnits="userSpaceOnUse"
       gradientTransform="translate(0,361)"
       x1="179.17316"
       y1="201.36722"
       x2="192.49748"
       y2="251.09427" />
    <linearGradient
       inkscape:collect="always"
       xlink:href="#linearGradient6602"
       id="linearGradient9603"
       gradientUnits="userSpaceOnUse"
       gradientTransform="translate(180,361)"
       x1="179.17316"
       y1="201.36722"
       x2="192.49748"
       y2="251.09427" />
    <linearGradient
       inkscape:collect="always"
       xlink:href="#linearGradient3213"
       id="linearGradient3219"
       x1="808.03339"
       y1="761.61957"
       x2="808.03339"
       y2="828.61957"
       gradientUnits="userSpaceOnUse"
       gradientTransform="matrix(0.428077,0,0,0.428077,215.3995,431.5464)" />
    <linearGradient
       inkscape:collect="always"
       xlink:href="#linearGradient3213"
       id="linearGradient3223"
       gradientUnits="userSpaceOnUse"
       gradientTransform="matrix(-0.428077,6.660151e-18,-6.660151e-18,-0.428077,907.2004,1148.042)"
       x1="808.03339"
       y1="761.61957"
       x2="808.03339"
       y2="828.61957" />
    <linearGradient
       inkscape:collect="always"
       xlink:href="#linearGradient3213"
       id="linearGradient3235"
       gradientUnits="userSpaceOnUse"
       gradientTransform="matrix(0.428077,0,0,0.428077,215.3995,431.5464)"
       x1="808.03339"
       y1="761.61957"
       x2="808.03339"
       y2="828.61957" />
    <linearGradient
       inkscape:collect="always"
       xlink:href="#linearGradient3213"
       id="linearGradient3237"
       gradientUnits="userSpaceOnUse"
       gradientTransform="matrix(-0.428077,6.660151e-18,-6.660151e-18,-0.428077,907.2004,1148.042)"
       x1="808.03339"
       y1="761.61957"
       x2="808.03339"
       y2="828.61957" />
    <linearGradient
       inkscape:collect="always"
       xlink:href="#linearGradient3213"
       id="linearGradient3277"
       gradientUnits="userSpaceOnUse"
       gradientTransform="matrix(0.428077,0,0,0.428077,215.3995,431.5464)"
       x1="808.03339"
       y1="761.61957"
       x2="808.03339"
       y2="828.61957" />
    <linearGradient
       inkscape:collect="always"
       xlink:href="#linearGradient3213"
       id="linearGradient3279"
       gradientUnits="userSpaceOnUse"
       gradientTransform="matrix(-0.428077,6.660151e-18,-6.660151e-18,-0.428077,907.2004,1148.042)"
       x1="808.03339"
       y1="761.61957"
       x2="808.03339"
       y2="828.61957" />
    <linearGradient
       inkscape:collect="always"
       xlink:href="#linearGradient3213"
       id="linearGradient3281"
       gradientUnits="userSpaceOnUse"
       gradientTransform="matrix(0.428077,0,0,0.428077,215.3995,431.5464)"
       x1="808.03339"
       y1="761.61957"
       x2="808.03339"
       y2="828.61957" />
    <linearGradient
       inkscape:collect="always"
       xlink:href="#linearGradient3213"
       id="linearGradient3283"
       gradientUnits="userSpaceOnUse"
       gradientTransform="matrix(-0.428077,6.660151e-18,-6.660151e-18,-0.428077,907.2004,1148.042)"
       x1="808.03339"
       y1="761.61957"
       x2="808.03339"
       y2="828.61957" />
    <linearGradient
       inkscape:collect="always"
       xlink:href="#linearGradient6628"
       id="linearGradient3203"
       gradientUnits="userSpaceOnUse"
       gradientTransform="translate(-442.3622,-22.36222)"
       x1="219.47768"
       y1="307.7373"
       x2="219.47768"
       y2="283.1062" />
    <linearGradient
       inkscape:collect="always"
       xlink:href="#linearGradient6628"
       id="linearGradient3206"
       gradientUnits="userSpaceOnUse"
       gradientTransform="translate(3.994141e-7,2.207031e-5)"
       x1="219.47768"
       y1="307.7373"
       x2="219.47768"
       y2="283.1062" />
    <linearGradient
       inkscape:collect="always"
       xlink:href="#linearGradient6628"
       id="linearGradient3209"
       gradientUnits="userSpaceOnUse"
       gradientTransform="translate(-442.3622,157.6378)"
       x1="219.47768"
       y1="307.7373"
       x2="219.47768"
       y2="283.1062" />
    <linearGradient
       inkscape:collect="always"
       xlink:href="#linearGradient6628"
       id="linearGradient3212"
       gradientUnits="userSpaceOnUse"
       gradientTransform="translate(180,2.207031e-5)"
       x1="219.47768"
       y1="307.7373"
       x2="219.47768"
       y2="283.1062" />
    <linearGradient
       inkscape:collect="always"
       xlink:href="#linearGradient6628"
       id="linearGradient3215"
       gradientUnits="userSpaceOnUse"
       gradientTransform="translate(-622.3622,157.6378)"
       x1="219.47768"
       y1="307.7373"
       x2="219.47768"
       y2="283.1062" />
    <linearGradient
       inkscape:collect="always"
       xlink:href="#linearGradient6628"
       id="linearGradient3218"
       gradientUnits="userSpaceOnUse"
       gradientTransform="translate(180,180.0001)"
       x1="219.47768"
       y1="307.7373"
       x2="219.47768"
       y2="283.1062" />
    <linearGradient
       inkscape:collect="always"
       xlink:href="#linearGradient6628"
       id="linearGradient3221"
       gradientUnits="userSpaceOnUse"
       gradientTransform="translate(-622.3622,-22.3622)"
       x1="219.47768"
       y1="307.7373"
       x2="219.47768"
       y2="283.1062" />
    <linearGradient
       inkscape:collect="always"
       xlink:href="#linearGradient6628"
       id="linearGradient3224"
       gradientUnits="userSpaceOnUse"
       gradientTransform="translate(2.32876e-5,180.0001)"
       x1="219.47768"
       y1="307.7373"
       x2="219.47768"
       y2="283.1062" />
    <linearGradient
       inkscape:collect="always"
       xlink:href="#linearGradient6628"
       id="linearGradient3227"
       gradientUnits="userSpaceOnUse"
       gradientTransform="translate(-802.3622,-22.3622)"
       x1="219.47768"
       y1="307.7373"
       x2="219.47768"
       y2="283.1062" />
    <linearGradient
       inkscape:collect="always"
       xlink:href="#linearGradient6628"
       id="linearGradient3230"
       gradientUnits="userSpaceOnUse"
       gradientTransform="translate(2.32876e-5,360)"
       x1="219.47768"
       y1="307.7373"
       x2="219.47768"
       y2="283.1062" />
    <linearGradient
       inkscape:collect="always"
       xlink:href="#linearGradient6628"
       id="linearGradient3233"
       gradientUnits="userSpaceOnUse"
       gradientTransform="translate(-802.3622,156.6021)"
       x1="219.47768"
       y1="307.7373"
       x2="219.47768"
       y2="283.1062" />
    <linearGradient
       inkscape:collect="always"
       xlink:href="#linearGradient6628"
       id="linearGradient3236"
       gradientUnits="userSpaceOnUse"
       gradientTransform="translate(178.9643,360)"
       x1="219.47768"
       y1="307.7373"
       x2="219.47768"
       y2="283.1062" />
  </defs>
  <sodipodi:namedview
     id="base"
     pagecolor="#ffffff"
     bordercolor="#666666"
     borderopacity="1.0"
     inkscape:pageopacity="0.0"
     inkscape:pageshadow="2"
     inkscape:zoom="0.7071068"
     inkscape:cx="62.320053"
     inkscape:cy="636.94935"
     inkscape:document-units="px"
     inkscape:current-layer="layer4"
     showgrid="false" />
  <metadata
     id="metadata7">
    <rdf:RDF>
      <cc:Work
         rdf:about="">
        <dc:format>image/svg+xml</dc:format>
        <dc:type
           rdf:resource="http://purl.org/dc/dcmitype/StillImage" />
      </cc:Work>
    </rdf:RDF>
  </metadata>
  <g
     inkscape:groupmode="layer"
     id="layer4"
     inkscape:label="Ground"
     style="display:inline">
    <rect
       ry="25.67095"
       rx="30.714291"
       y="516.98706"
       x="313.5892"
       height="150.75027"
       width="150.75027"
       id="rect9599"
       style="fill:#cc00ff;fill-opacity:1;fill-rule:nonzero;stroke:#000000;stroke-width:6;stroke-linecap:round;stroke-linejoin:miter;stroke-miterlimit:4;stroke-dasharray:none;stroke-dashoffset:0;stroke-opacity:1;display:inline" />
    <rect
       style="fill:#ff0202;fill-opacity:1;fill-rule:nonzero;stroke:#000000;stroke-width:6;stroke-linecap:round;stroke-linejoin:miter;stroke-miterlimit:4;stroke-dasharray:none;stroke-dashoffset:0;stroke-opacity:1;display:inline"
       id="rect1386"
       width="150.75026"
       height="150.75026"
       x="134.62486"
       y="156.98705"
       rx="30.714279"
       ry="25.670946" />
    <rect
       ry="25.670946"
       rx="30.714283"
       y="156.98705"
       x="314.62488"
       height="150.75026"
       width="150.75026"
       id="rect2263"
       style="opacity:1;fill:#ffcd02;fill-opacity:1;fill-rule:nonzero;stroke:#000000;stroke-width:6;stroke-linecap:round;stroke-linejoin:miter;stroke-miterlimit:4;stroke-dasharray:none;stroke-dashoffset:0;stroke-opacity:1;display:inline" />
    <rect
       ry="25.67095"
       rx="30.714291"
       y="336.98709"
       x="134.62488"
       height="150.75027"
       width="150.75027"
       id="rect2273"
       style="fill:#6985ff;fill-opacity:1;fill-rule:nonzero;stroke:#000000;stroke-width:6;stroke-linecap:round;stroke-linejoin:miter;stroke-miterlimit:4;stroke-dasharray:none;stroke-dashoffset:0;stroke-opacity:1;display:inline" />
    <rect
       style="fill:#00ff02;fill-opacity:1;fill-rule:nonzero;stroke:#000000;stroke-width:6;stroke-linecap:round;stroke-linejoin:miter;stroke-miterlimit:4;stroke-dasharray:none;stroke-dashoffset:0;stroke-opacity:1;display:inline"
       id="rect4911"
       width="150.75027"
       height="150.75027"
       x="314.62491"
       y="336.98709"
       rx="30.714289"
       ry="25.67095" />
    <rect
       style="fill:#ffff00;fill-opacity:1;fill-rule:nonzero;stroke:#000000;stroke-width:6;stroke-linecap:round;stroke-linejoin:miter;stroke-miterlimit:4;stroke-dasharray:none;stroke-dashoffset:0;stroke-opacity:1;display:inline"
       id="rect1338"
       width="150.75027"
       height="150.75027"
       x="134.62488"
       y="516.98706"
       rx="30.714291"
       ry="25.67095" />
  </g>
  <g
     inkscape:label="shadow"
     inkscape:groupmode="layer"
     id="layer1"
     style="display:inline"
     sodipodi:insensitive="true">
    <rect
       style="opacity:0.5;fill:url(#linearGradient3236);fill-opacity:1;fill-rule:nonzero;stroke:none;stroke-width:9.24973774;stroke-linecap:round;stroke-linejoin:miter;stroke-miterlimit:4;stroke-dasharray:none;stroke-dashoffset:0;stroke-opacity:1"
       id="rect9607"
       width="150.75026"
       height="150.75026"
       x="313.5892"
       y="516.98706"
       rx="30.714279"
       ry="25.670946" />
    <rect
       transform="matrix(0,-1,1,0,0,0)"
       ry="25.670946"
       rx="30.714279"
       y="313.5892"
       x="-667.7373"
       height="150.75026"
       width="150.75026"
       id="rect9609"
       style="opacity:0.5;fill:url(#linearGradient3233);fill-opacity:1;fill-rule:nonzero;stroke:none;stroke-width:9.24973774;stroke-linecap:round;stroke-linejoin:miter;stroke-miterlimit:4;stroke-dasharray:none;stroke-dashoffset:0;stroke-opacity:1" />
    <rect
       ry="25.670946"
       rx="30.714279"
       y="156.98705"
       x="134.62486"
       height="150.75026"
       width="150.75026"
       id="rect6626"
       style="opacity:0.5;fill:url(#linearGradient3206);fill-opacity:1;fill-rule:nonzero;stroke:none;stroke-width:9.24973774;stroke-linecap:round;stroke-linejoin:miter;stroke-miterlimit:4;stroke-dasharray:none;stroke-dashoffset:0;stroke-opacity:1" />
    <rect
       style="opacity:0.5;fill:url(#linearGradient3203);fill-opacity:1;fill-rule:nonzero;stroke:none;stroke-width:9.24973774;stroke-linecap:round;stroke-linejoin:miter;stroke-miterlimit:4;stroke-dasharray:none;stroke-dashoffset:0;stroke-opacity:1"
       id="rect6640"
       width="150.75026"
       height="150.75026"
       x="-307.7373"
       y="134.62486"
       transform="matrix(0,-1,1,0,0,0)"
       ry="25.670946" />
    <rect
       style="opacity:0.5;fill:url(#linearGradient3212);fill-opacity:1;fill-rule:nonzero;stroke:none;stroke-width:9.24973774;stroke-linecap:round;stroke-linejoin:miter;stroke-miterlimit:4;stroke-dasharray:none;stroke-dashoffset:0;stroke-opacity:1"
       id="rect6655"
       width="150.75026"
       height="150.75026"
       x="314.62488"
       y="156.98705"
       rx="30.714279"
       ry="25.670946" />
    <rect
       transform="matrix(0,-1,1,0,0,0)"
       ry="25.670946"
       rx="30.714279"
       y="314.62488"
       x="-307.7373"
       height="150.75026"
       width="150.75026"
       id="rect6657"
       style="opacity:0.5;fill:url(#linearGradient3209);fill-opacity:1;fill-rule:nonzero;stroke:none;stroke-width:9.24973774;stroke-linecap:round;stroke-linejoin:miter;stroke-miterlimit:4;stroke-dasharray:none;stroke-dashoffset:0;stroke-opacity:1" />
    <rect
       style="opacity:0.5;fill:url(#linearGradient3224);fill-opacity:1;fill-rule:nonzero;stroke:none;stroke-width:9.24973774;stroke-linecap:round;stroke-linejoin:miter;stroke-miterlimit:4;stroke-dasharray:none;stroke-dashoffset:0;stroke-opacity:1"
       id="rect6675"
       width="150.75026"
       height="150.75026"
       x="134.62488"
       y="336.98709"
       rx="30.714279"
       ry="25.670946" />
    <rect
       transform="matrix(0,-1,1,0,0,0)"
       ry="25.670946"
       rx="30.714279"
       y="134.62488"
       x="-487.73737"
       height="150.75026"
       width="150.75026"
       id="rect6677"
       style="opacity:0.5;fill:url(#linearGradient3221);fill-opacity:1;fill-rule:nonzero;stroke:none;stroke-width:9.24973774;stroke-linecap:round;stroke-linejoin:miter;stroke-miterlimit:4;stroke-dasharray:none;stroke-dashoffset:0;stroke-opacity:1" />
    <rect
       ry="25.670946"
       rx="30.714279"
       y="336.98709"
       x="314.62491"
       height="150.75026"
       width="150.75026"
       id="rect6665"
       style="opacity:0.5;fill:url(#linearGradient3218);fill-opacity:1;fill-rule:nonzero;stroke:none;stroke-width:9.24973774;stroke-linecap:round;stroke-linejoin:miter;stroke-miterlimit:4;stroke-dasharray:none;stroke-dashoffset:0;stroke-opacity:1" />
    <rect
       style="opacity:0.5;fill:url(#linearGradient3215);fill-opacity:1;fill-rule:nonzero;stroke:none;stroke-width:9.24973774;stroke-linecap:round;stroke-linejoin:miter;stroke-miterlimit:4;stroke-dasharray:none;stroke-dashoffset:0;stroke-opacity:1"
       id="rect6667"
       width="150.75026"
       height="150.75026"
       x="-487.73737"
       y="314.62491"
       rx="30.714279"
       ry="25.670946"
       transform="matrix(0,-1,1,0,0,0)" />
    <rect
       ry="25.670946"
       rx="30.714279"
       y="516.98706"
       x="134.62488"
       height="150.75026"
       width="150.75026"
       id="rect6685"
       style="opacity:0.5;fill:url(#linearGradient3230);fill-opacity:1;fill-rule:nonzero;stroke:none;stroke-width:9.24973774;stroke-linecap:round;stroke-linejoin:miter;stroke-miterlimit:4;stroke-dasharray:none;stroke-dashoffset:0;stroke-opacity:1" />
    <rect
       style="opacity:0.5;fill:url(#linearGradient3227);fill-opacity:1;fill-rule:nonzero;stroke:none;stroke-width:9.24973774;stroke-linecap:round;stroke-linejoin:miter;stroke-miterlimit:4;stroke-dasharray:none;stroke-dashoffset:0;stroke-opacity:1"
       id="rect6687"
       width="150.75026"
       height="150.75026"
       x="-667.7373"
       y="134.62488"
       rx="30.714279"
       ry="25.670946"
       transform="matrix(0,-1,1,0,0,0)" />
  </g>
  <g
     inkscape:groupmode="layer"
     id="layer3"
     inkscape:label="symbols"
     style="display:inline"
     sodipodi:insensitive="true">
    <rect
       ry="19.956661"
       rx="7.6689577"
       y="181.91841"
       x="374.71973"
       height="66.923866"
       width="38.818222"
       id="rect6591"
       style="opacity:0.25;fill:#000000;fill-opacity:1;fill-rule:nonzero;stroke:#000000;stroke-width:3.03979874;stroke-linecap:round;stroke-linejoin:miter;stroke-miterlimit:4;stroke-dasharray:none;stroke-dashoffset:0;stroke-opacity:1;display:inline" />
    <rect
       style="fill:#ffffff;fill-opacity:1;fill-rule:nonzero;stroke:#000000;stroke-width:3;stroke-linecap:round;stroke-linejoin:miter;stroke-miterlimit:4;stroke-dasharray:none;stroke-dashoffset:0;stroke-opacity:1;display:inline"
       id="rect2261"
       width="38.818222"
       height="66.923866"
       x="370.71973"
       y="179.91841"
       rx="7.6689577"
       ry="19.956661" />
    <path
       transform="matrix(0.64697,0,0,0.64697,-21.78064,-121.6482)"
       d="M 671.42854 606.64789 A 28.571428 22.857143 0 1 1  614.28569,606.64789 A 28.571428 22.857143 0 1 1  671.42854 606.64789 z"
       sodipodi:ry="22.857143"
       sodipodi:rx="28.571428"
       sodipodi:cy="606.64789"
       sodipodi:cx="642.85712"
       id="path6593"
       style="opacity:0.25;fill:#000000;fill-opacity:1;fill-rule:nonzero;stroke:#000000;stroke-width:5;stroke-linecap:round;stroke-linejoin:miter;stroke-miterlimit:4;stroke-dasharray:none;stroke-dashoffset:0;stroke-opacity:1;display:inline"
       sodipodi:type="arc" />
    <path
       sodipodi:type="arc"
       style="fill:#ffffff;fill-opacity:1;fill-rule:nonzero;stroke:#000000;stroke-width:4.63700008;stroke-linecap:round;stroke-linejoin:miter;stroke-miterlimit:4;stroke-dasharray:none;stroke-dashoffset:0;stroke-opacity:1;display:inline"
       id="path2265"
       sodipodi:cx="642.85712"
       sodipodi:cy="606.64789"
       sodipodi:rx="28.571428"
       sodipodi:ry="22.857143"
       d="M 671.42854 606.64789 A 28.571428 22.857143 0 1 1  614.28569,606.64789 A 28.571428 22.857143 0 1 1  671.42854 606.64789 z"
       transform="matrix(0.64697,0,0,0.64697,-25.78064,-123.6482)" />
    <path
       sodipodi:nodetypes="cccccccccccccc"
       id="path6587"
       d="M 417.86217,361.98963 C 415.27414,362.15613 411.37381,365.76527 408.33559,371.02766 L 378.52285,421.10328 L 362.13632,411.65812 C 355.89942,408.05723 349.75946,407.0833 348.37571,409.48004 L 338.49436,428.16679 C 337.11061,430.56351 341.01051,435.3749 347.24741,438.97579 L 383.09422,459.67778 L 393.74038,464.46143 C 396.1371,465.84518 400.96888,461.94531 404.56974,455.70837 L 442.16716,390.56937 C 445.76804,384.33246 446.74197,378.1925 444.34525,376.80874 L 419.14459,362.27461 C 418.77011,362.0584 418.34144,361.95879 417.86217,361.98963 z "
       style="opacity:0.25;fill:#000000;fill-opacity:1;fill-rule:nonzero;stroke:#000000;stroke-width:3.75090265;stroke-linecap:round;stroke-linejoin:miter;stroke-miterlimit:4;stroke-dashoffset:0;stroke-opacity:1;display:inline" />
    <path
       style="fill:#ffffff;fill-opacity:1;fill-rule:nonzero;stroke:#000000;stroke-width:3;stroke-linecap:round;stroke-linejoin:miter;stroke-miterlimit:4;stroke-dasharray:none;stroke-dashoffset:0;stroke-opacity:1;display:inline"
       d="M 413.86217,359.98963 C 411.27414,360.15613 407.37381,363.76527 404.33559,369.02766 L 374.52285,419.10328 L 358.13632,409.65812 C 351.89942,406.05723 345.75946,405.0833 344.37571,407.48004 L 334.49436,426.16679 C 333.11061,428.56351 337.01051,433.3749 343.24741,436.97579 L 379.09422,457.67778 L 389.74038,462.46143 C 392.1371,463.84518 396.96888,459.94531 400.56974,453.70837 L 438.16716,388.56937 C 441.76804,382.33246 442.74197,376.1925 440.34525,374.80874 L 415.14459,360.27461 C 414.77011,360.0584 414.34144,359.95879 413.86217,359.98963 z "
       id="rect4913"
       sodipodi:nodetypes="cccccccccccccc" />
    <g
       id="g3300"
       transform="translate(-148,0)"
       style="opacity:0.25">
      <path
         style="fill:#000000;fill-opacity:1;fill-rule:nonzero;stroke:#000000;stroke-width:2.60599899;stroke-linecap:round;stroke-linejoin:bevel;stroke-miterlimit:4;stroke-dasharray:none;stroke-dashoffset:0;stroke-opacity:1"
         d="M 521.90413,634.54108 C 529.20622,638.10245 537.51362,638.53464 545.45504,636.3747 C 544.74014,635.07351 544.09773,633.67468 543.50851,632.18369 C 542.23417,629.05948 542.73752,625.49092 544.82536,622.84035 C 546.91321,620.18978 550.26498,618.88377 553.60075,619.39092 C 556.93654,619.89808 558.27534,621.01852 556.17185,617.37515 C 554.31773,614.46673 554.19967,610.76476 555.88135,607.75332 C 557.56303,604.7419 560.75657,602.90788 564.20534,602.96074 C 564.52866,602.96569 564.86471,602.98183 565.18186,603.01935 C 563.30771,600.45958 562.81643,597.01761 564.0906,593.90948 C 565.90276,589.48901 570.7311,587.13861 575.32465,588.45154 C 576.67322,588.80142 577.92691,589.00643 579.06611,589.09613 C 578.92133,585.81339 578.40553,582.61642 577.52315,579.58113 C 577.5174,579.57774 577.49919,579.56724 577.49609,579.56551 C 569.13535,581.61728 560.47984,580.7469 553.00133,576.42918 C 545.5228,572.11147 540.44132,565.05074 538.03782,556.78426 C 534.93487,557.54587 531.86981,558.7154 528.92511,560.25544 C 529.55434,561.15277 530.3372,562.07073 531.26563,563.01404 C 534.65467,566.29942 535.07626,571.60235 532.24549,575.37936 C 530.20236,578.10546 526.92896,579.43294 523.72092,579.08185 C 523.91199,579.33775 524.09399,579.62071 524.25994,579.89824 C 526.03011,582.85852 526.03855,586.54124 524.27143,589.50332 C 522.5043,592.46541 519.23926,594.21416 515.79343,594.06265 C 511.65721,594.06265 513.22615,594.66187 515.33327,597.29717 C 517.44038,599.93246 517.9852,603.48817 516.73367,606.6216 C 515.48213,609.75502 512.64334,611.9752 509.30052,612.43369 C 507.7632,612.66172 506.27921,612.81571 504.83724,612.85182 C 507.11465,621.5432 512.28902,628.98979 520.06383,633.47858 C 520.33346,633.63425 520.60309,633.80058 520.87573,633.94733 C 520.94282,633.98344 520.9979,634.02113 521.06517,634.0567 C 521.13218,634.09214 521.18743,634.13118 521.25461,634.16608 C 521.31296,634.19639 521.35851,634.22992 521.41699,634.25983 C 521.47502,634.28951 521.52122,634.3243 521.57937,634.35358 C 521.63707,634.38263 521.68393,634.41868 521.74175,634.44733 C 521.79913,634.47575 521.84664,634.51304 521.90413,634.54108 z "
         id="path3270"
         sodipodi:nodetypes="cccsscsscsccccscccscsscssccsssssssc" />
      <path
         transform="matrix(0.144408,-0.250122,0.295749,0.170751,277.4203,594.5395)"
         d="M 650 672.36218 A 51 60 0 1 1  548,672.36218 A 51 60 0 1 1  650 672.36218 z"
         sodipodi:ry="60"
         sodipodi:rx="51"
         sodipodi:cy="672.36218"
         sodipodi:cx="599"
         id="path3272"
         style="fill:#000000;fill-opacity:1;fill-rule:nonzero;stroke:#000000;stroke-width:8.29788017;stroke-linecap:round;stroke-linejoin:bevel;stroke-miterlimit:4;stroke-dasharray:none;stroke-dashoffset:0;stroke-opacity:1"
         sodipodi:type="arc" />
      <path
         style="fill:#000000;fill-opacity:1;fill-rule:evenodd;stroke:#000000;stroke-width:3.49999881;stroke-linecap:round;stroke-linejoin:miter;stroke-miterlimit:4;stroke-dasharray:none;stroke-opacity:1"
         d="M 559.5595,643.50755 C 563.5483,646.2312 566.79792,644.8671 567.66474,643.92738 C 568.53155,642.98765 568.8171,641.65009 568.40958,640.43833 C 568.00207,639.22655 566.96632,638.33334 565.70781,638.10836 C 562.57718,636.86254 557.64463,633.34935 555.46796,627.46932 C 554.76419,625.66798 552.7334,624.77822 550.93205,625.48198 C 549.13071,626.18576 548.24096,628.21656 548.94472,630.01789 C 551.52964,636.55896 555.5707,640.7839 559.5595,643.50755 z "
         id="path3274"
         sodipodi:nodetypes="cssccscc" />
      <path
         style="fill:#000000;fill-opacity:1;fill-rule:evenodd;stroke:#000000;stroke-width:3.49999881;stroke-linecap:round;stroke-linejoin:miter;stroke-miterlimit:4;stroke-dasharray:none;stroke-opacity:1"
         d="M 573.71446,626.24044 C 578.05971,628.34939 582.96846,626.82927 583.73426,625.74926 C 584.50007,624.66925 584.591,623.24958 583.96923,622.08071 C 583.34744,620.91182 582.11939,620.19379 580.79579,620.22522 C 576.77559,619.96595 571.05222,616.99093 567.32501,610.93231 C 566.70713,609.83455 565.54706,609.15345 564.28736,609.14888 C 563.02767,609.1443 561.86268,609.81695 561.23684,610.91019 C 560.611,612.00344 560.62087,613.34865 561.26267,614.43259 C 564.77932,620.52361 569.36922,624.13149 573.71446,626.24044 z "
         id="path3276"
         sodipodi:nodetypes="cssccsscc" />
      <path
         style="fill:#000000;fill-opacity:1;fill-rule:evenodd;stroke:#000000;stroke-width:3.49999881;stroke-linecap:round;stroke-linejoin:miter;stroke-miterlimit:4;stroke-dasharray:none;stroke-opacity:1"
         d="M 571.20846,600.58098 C 571.48228,600.74015 571.78455,600.83506 572.08286,600.94147 C 581.23456,604.20608 589.91102,600.05461 593.71909,596.65392 C 594.77318,595.85984 595.29105,594.54041 595.0585,593.24134 C 594.82596,591.94227 593.88254,590.88441 592.61844,590.5053 C 591.35435,590.1262 589.98449,590.49029 589.07542,591.44699 C 586.07063,594.13033 580.5255,596.28674 573.83406,594.1583 C 572.13725,593.71634 570.37522,594.59804 569.71171,596.22109 C 569.0482,597.84414 569.68796,599.7077 571.20846,600.58098 z "
         id="path3278"
         sodipodi:nodetypes="cscssccsc" />
      <path
         sodipodi:nodetypes="cssccscc"
         id="path3284"
         d="M 491.33909,604.12046 C 486.98594,602.02788 486.54248,598.53158 486.92289,597.31103 C 487.30331,596.09048 488.3189,595.17441 489.57208,594.92146 C 490.82526,594.66848 492.11668,595.11886 492.94077,596.09627 C 495.585,598.18457 501.09379,600.69969 507.27438,599.64473 C 509.18627,599.35354 510.97222,600.66738 511.26341,602.57927 C 511.5546,604.49117 510.24075,606.27712 508.32886,606.5683 C 501.37167,607.60023 495.69224,606.21304 491.33909,604.12046 z "
         style="fill:#000000;fill-opacity:1;fill-rule:evenodd;stroke:#000000;stroke-width:3.49999881;stroke-linecap:round;stroke-linejoin:miter;stroke-miterlimit:4;stroke-dasharray:none;stroke-opacity:1" />
      <path
         sodipodi:nodetypes="cssccsscc"
         id="path3286"
         d="M 499.21537,583.22835 C 495.21635,580.51973 494.07844,575.50857 494.63085,574.30536 C 495.18326,573.10214 496.36727,572.31356 497.69043,572.2676 C 499.0136,572.22163 500.24947,572.92615 500.88404,574.08813 C 503.11868,577.44009 508.55681,580.90917 515.66733,581.10772 C 516.92696,581.09394 518.09684,581.75804 518.73065,582.84669 C 519.36446,583.93532 519.36442,585.28056 518.73057,586.36917 C 518.09671,587.45779 516.92679,588.12185 515.66716,588.108 C 508.63386,588.108 503.2144,585.93697 499.21537,583.22835 z "
         style="fill:#000000;fill-opacity:1;fill-rule:evenodd;stroke:#000000;stroke-width:3.49999881;stroke-linecap:round;stroke-linejoin:miter;stroke-miterlimit:4;stroke-dasharray:none;stroke-opacity:1" />
      <path
         sodipodi:nodetypes="cscssccsc"
         id="path3288"
         d="M 522.69012,572.56889 C 522.41537,572.41134 522.18203,572.19702 521.94072,571.99188 C 514.53765,565.69858 513.7947,556.10881 514.83575,551.11058 C 514.9964,549.80067 515.88013,548.69247 517.12143,548.24433 C 518.36273,547.79618 519.75057,548.08428 520.71093,548.98946 C 521.67129,549.89465 522.04091,551.26303 521.66691,552.52865 C 520.84547,556.47255 521.75053,562.35298 526.93952,567.08371 C 528.17068,568.33222 528.28812,570.29903 527.21427,571.68517 C 526.14042,573.07131 524.20665,573.44904 522.69012,572.56889 z "
         style="fill:#000000;fill-opacity:1;fill-rule:evenodd;stroke:#000000;stroke-width:3.49999881;stroke-linecap:round;stroke-linejoin:miter;stroke-miterlimit:4;stroke-dasharray:none;stroke-opacity:1" />
    </g>
    <path
       style="fill:#ffffff;fill-opacity:1;fill-rule:nonzero;stroke:#000000;stroke-width:3;stroke-linecap:round;stroke-linejoin:bevel;stroke-miterlimit:4;stroke-dasharray:none;stroke-dashoffset:0;stroke-opacity:1"
       d="M 369.90413,632.54108 C 377.20622,636.10245 385.51362,636.53464 393.45504,634.3747 C 392.74014,633.07351 392.09773,631.67468 391.50851,630.18369 C 390.23417,627.05948 390.73752,623.49092 392.82536,620.84035 C 394.91321,618.18978 398.26498,616.88377 401.60075,617.39092 C 404.93654,617.89808 406.27534,619.01852 404.17185,615.37515 C 402.31773,612.46673 402.19967,608.76476 403.88135,605.75332 C 405.56303,602.7419 408.75657,600.90788 412.20534,600.96074 C 412.52866,600.96569 412.86471,600.98183 413.18186,601.01935 C 411.30771,598.45958 410.81643,595.01761 412.0906,591.90948 C 413.90276,587.48901 418.7311,585.13861 423.32465,586.45154 C 424.67322,586.80142 425.92691,587.00643 427.06611,587.09613 C 426.92133,583.81339 426.40553,580.61642 425.52315,577.58113 C 425.5174,577.57774 425.49919,577.56724 425.49609,577.56551 C 417.13535,579.61728 408.47984,578.7469 401.00133,574.42918 C 393.5228,570.11147 388.44132,563.05074 386.03782,554.78426 C 382.93487,555.54587 379.86981,556.7154 376.92511,558.25544 C 377.55434,559.15277 378.3372,560.07073 379.26563,561.01404 C 382.65467,564.29942 383.07626,569.60235 380.24549,573.37936 C 378.20236,576.10546 374.92896,577.43294 371.72092,577.08185 C 371.91199,577.33775 372.09399,577.62071 372.25994,577.89824 C 374.03011,580.85852 374.03855,584.54124 372.27143,587.50332 C 370.5043,590.46541 367.23926,592.21416 363.79343,592.06265 C 359.65721,592.06265 361.22615,592.66187 363.33327,595.29717 C 365.44038,597.93246 365.9852,601.48817 364.73367,604.6216 C 363.48213,607.75502 360.64334,609.9752 357.30052,610.43369 C 355.7632,610.66172 354.27921,610.81571 352.83724,610.85182 C 355.11465,619.5432 360.28902,626.98979 368.06383,631.47858 C 368.33346,631.63425 368.60309,631.80058 368.87573,631.94733 C 368.94282,631.98344 368.9979,632.02113 369.06517,632.0567 C 369.13218,632.09214 369.18743,632.13118 369.25461,632.16608 C 369.31296,632.19639 369.35851,632.22992 369.41699,632.25983 C 369.47502,632.28951 369.52122,632.3243 369.57937,632.35358 C 369.63707,632.38263 369.68393,632.41868 369.74175,632.44733 C 369.79913,632.47575 369.84664,632.51304 369.90413,632.54108 z "
       id="path3189"
       sodipodi:nodetypes="cccsscsscsccccscccscsscssccsssssssc" />
    <path
       transform="matrix(0.144408,-0.250122,0.295749,0.170751,125.4203,592.5395)"
       d="M 650 672.36218 A 51 60 0 1 1  548,672.36218 A 51 60 0 1 1  650 672.36218 z"
       sodipodi:ry="60"
       sodipodi:rx="51"
       sodipodi:cy="672.36218"
       sodipodi:cx="599"
       id="path3191"
       style="fill:#ffffff;fill-opacity:1;fill-rule:nonzero;stroke:#000000;stroke-width:9.55243778;stroke-linecap:round;stroke-linejoin:bevel;stroke-miterlimit:4;stroke-dasharray:none;stroke-dashoffset:0;stroke-opacity:1"
       sodipodi:type="arc" />
    <path
       style="fill:#000000;fill-opacity:1;fill-rule:evenodd;stroke:#000000;stroke-width:3.49999881;stroke-linecap:round;stroke-linejoin:miter;stroke-miterlimit:4;stroke-dasharray:none;stroke-opacity:1"
       d="M 407.5595,641.50755 C 411.5483,644.2312 414.79792,642.8671 415.66474,641.92738 C 416.53155,640.98765 416.8171,639.65009 416.40958,638.43833 C 416.00207,637.22655 414.96632,636.33334 413.70781,636.10836 C 410.57718,634.86254 405.64463,631.34935 403.46796,625.46932 C 402.76419,623.66798 400.7334,622.77822 398.93205,623.48198 C 397.13071,624.18576 396.24096,626.21656 396.94472,628.01789 C 399.52964,634.55896 403.5707,638.7839 407.5595,641.50755 z "
       id="path3193"
       sodipodi:nodetypes="cssccscc" />
    <path
       style="fill:#000000;fill-opacity:1;fill-rule:evenodd;stroke:#000000;stroke-width:3.49999881;stroke-linecap:round;stroke-linejoin:miter;stroke-miterlimit:4;stroke-dasharray:none;stroke-opacity:1"
       d="M 421.71446,624.24044 C 426.05971,626.34939 430.96846,624.82927 431.73426,623.74926 C 432.50007,622.66925 432.591,621.24958 431.96923,620.08071 C 431.34744,618.91182 430.11939,618.19379 428.79579,618.22522 C 424.77559,617.96595 419.05222,614.99093 415.32501,608.93231 C 414.70713,607.83455 413.54706,607.15345 412.28736,607.14888 C 411.02767,607.1443 409.86268,607.81695 409.23684,608.91019 C 408.611,610.00344 408.62087,611.34865 409.26267,612.43259 C 412.77932,618.52361 417.36922,622.13149 421.71446,624.24044 z "
       id="path3195"
       sodipodi:nodetypes="cssccsscc" />
    <path
       style="fill:#000000;fill-opacity:1;fill-rule:evenodd;stroke:#000000;stroke-width:3.49999881;stroke-linecap:round;stroke-linejoin:miter;stroke-miterlimit:4;stroke-dasharray:none;stroke-opacity:1"
       d="M 419.20846,598.58098 C 419.48228,598.74015 419.78455,598.83506 420.08286,598.94147 C 429.23456,602.20608 437.91102,598.05461 441.71909,594.65392 C 442.77318,593.85984 443.29105,592.54041 443.0585,591.24134 C 442.82596,589.94227 441.88254,588.88441 440.61844,588.5053 C 439.35435,588.1262 437.98449,588.49029 437.07542,589.44699 C 434.07063,592.13033 428.5255,594.28674 421.83406,592.1583 C 420.13725,591.71634 418.37522,592.59804 417.71171,594.22109 C 417.0482,595.84414 417.68796,597.7077 419.20846,598.58098 z "
       id="path3197"
       sodipodi:nodetypes="cscssccsc" />
    <path
       style="fill:none;fill-opacity:0.75;fill-rule:evenodd;stroke:#000000;stroke-width:3;stroke-linecap:butt;stroke-linejoin:miter;stroke-miterlimit:4;stroke-dasharray:none;stroke-opacity:1"
       d="M 379.53113,620.38563 C 391.03113,600.46706 397.14716,591.87379 404.11126,587.81162"
       id="path3199" />
    <path
       id="path3201"
       d="M 371.73691,615.88563 C 383.23691,595.96706 387.62088,586.37379 387.65678,578.31162"
       style="fill:none;fill-opacity:0.75;fill-rule:evenodd;stroke:#000000;stroke-width:3;stroke-linecap:butt;stroke-linejoin:miter;stroke-miterlimit:4;stroke-dasharray:none;stroke-opacity:1" />
    <path
       sodipodi:nodetypes="cssccscc"
       id="path3203"
       d="M 339.33909,602.12046 C 334.98594,600.02788 334.54248,596.53158 334.92289,595.31103 C 335.30331,594.09048 336.3189,593.17441 337.57208,592.92146 C 338.82526,592.66848 340.11668,593.11886 340.94077,594.09627 C 343.585,596.18457 349.09379,598.69969 355.27438,597.64473 C 357.18627,597.35354 358.97222,598.66738 359.26341,600.57927 C 359.5546,602.49117 358.24075,604.27712 356.32886,604.5683 C 349.37167,605.60023 343.69224,604.21304 339.33909,602.12046 z "
       style="fill:#000000;fill-opacity:1;fill-rule:evenodd;stroke:#000000;stroke-width:3.49999881;stroke-linecap:round;stroke-linejoin:miter;stroke-miterlimit:4;stroke-dasharray:none;stroke-opacity:1" />
    <path
       sodipodi:nodetypes="cssccsscc"
       id="path3205"
       d="M 347.21537,581.22835 C 343.21635,578.51973 342.07844,573.50857 342.63085,572.30536 C 343.18326,571.10214 344.36727,570.31356 345.69043,570.2676 C 347.0136,570.22163 348.24947,570.92615 348.88404,572.08813 C 351.11868,575.44009 356.55681,578.90917 363.66733,579.10772 C 364.92696,579.09394 366.09684,579.75804 366.73065,580.84669 C 367.36446,581.93532 367.36442,583.28056 366.73057,584.36917 C 366.09671,585.45779 364.92679,586.12185 363.66716,586.108 C 356.63386,586.108 351.2144,583.93697 347.21537,581.22835 z "
       style="fill:#000000;fill-opacity:1;fill-rule:evenodd;stroke:#000000;stroke-width:3.49999881;stroke-linecap:round;stroke-linejoin:miter;stroke-miterlimit:4;stroke-dasharray:none;stroke-opacity:1" />
    <path
       sodipodi:nodetypes="cscssccsc"
       id="path3207"
       d="M 370.69012,570.56889 C 370.41537,570.41134 370.18203,570.19702 369.94072,569.99188 C 362.53765,563.69858 361.7947,554.10881 362.83575,549.11058 C 362.9964,547.80067 363.88013,546.69247 365.12143,546.24433 C 366.36273,545.79618 367.75057,546.08428 368.71093,546.98946 C 369.67129,547.89465 370.04091,549.26303 369.66691,550.52865 C 368.84547,554.47255 369.75053,560.35298 374.93952,565.08371 C 376.17068,566.33222 376.28812,568.29903 375.21427,569.68517 C 374.14042,571.07131 372.20665,571.44904 370.69012,570.56889 z "
       style="fill:#000000;fill-opacity:1;fill-rule:evenodd;stroke:#000000;stroke-width:3.49999881;stroke-linecap:round;stroke-linejoin:miter;stroke-miterlimit:4;stroke-dasharray:none;stroke-opacity:1" />
    <path
       id="path6589"
       d="M 241.57855,182.98342 C 241.57107,182.97976 241.54359,182.9719 241.53536,182.96902 C 241.50962,182.96154 241.46688,182.95523 241.43462,182.95464 C 241.40127,182.95516 241.3448,182.96174 241.30507,182.96902 C 239.71472,183.29665 233.32671,188.70195 226.16277,195.86589 L 213.99999,208.02866 L 201.8372,195.86589 C 194.67327,188.70195 188.28525,183.29664 186.69491,182.96902 C 186.65517,182.96174 186.59873,182.95516 186.56537,182.95464 C 186.53309,182.95523 186.49035,182.96154 186.46461,182.96902 C 186.45639,182.9719 186.4289,182.97976 186.42142,182.98342 C 186.41787,182.98544 186.4104,182.99559 186.40703,182.99781 C 186.40385,183.00023 186.39563,183.00959 186.39264,183.0122 L 162.65723,206.74762 C 162.65442,206.75042 162.64544,206.75901 162.64283,206.76202 C 162.64042,206.76518 162.63065,206.77303 162.62844,206.7764 C 162.62035,206.79062 162.60464,206.81681 162.59965,206.83399 C 162.59859,206.83846 162.60051,206.85811 162.59965,206.86276 C 162.59897,206.86761 162.60013,206.88653 162.59965,206.89155 C 162.59849,206.91235 162.59778,206.95426 162.59965,206.97792 C 162.75536,208.42804 168.22451,214.90578 175.5109,222.19218 L 187.67369,234.35497 L 175.49651,246.53214 C 168.02642,254.00223 162.48251,260.62246 162.59965,261.84718 C 162.60033,261.852 162.59879,261.8713 162.59965,261.87595 C 162.60387,261.89385 162.62114,261.91858 162.62844,261.93353 C 162.6345,261.94418 162.635,261.96773 162.64283,261.97671 L 186.37824,285.71212 C 186.38104,285.71493 186.38963,285.72391 186.39264,285.72652 C 186.39581,285.72893 186.41806,285.7243 186.42142,285.72652 C 186.42498,285.72854 186.43209,285.73908 186.43582,285.74091 C 186.44367,285.74417 186.47041,285.75282 186.479,285.75531 C 186.50584,285.76163 186.54641,285.77025 186.57976,285.7697 C 186.59698,285.76886 186.63293,285.75783 186.65173,285.75531 C 188.17295,285.51264 194.59763,280.08361 201.82282,272.85845 L 213.99999,260.68127 L 226.17716,272.85845 C 233.40233,280.08361 239.82701,285.51265 241.34825,285.75531 C 241.36707,285.75783 241.40302,285.76886 241.42021,285.7697 C 241.45357,285.77025 241.49413,285.76163 241.52098,285.75531 C 241.52956,285.75282 241.55631,285.74417 241.56416,285.74091 C 241.56789,285.73908 241.57501,285.72854 241.57855,285.72652 C 241.58865,285.71987 241.61331,285.72054 241.62173,285.71212 L 265.35715,261.97671 C 265.35976,261.97372 265.35473,261.9511 265.35715,261.94792 C 265.35936,261.94456 265.36952,261.93708 265.37154,261.93353 C 265.37886,261.91858 265.39611,261.89385 265.40033,261.87595 C 265.40118,261.8713 265.39966,261.852 265.40033,261.84718 C 265.51747,260.62246 259.97356,254.00224 252.50346,246.53214 L 240.32629,234.35497 L 252.48907,222.19218 C 259.77546,214.90578 265.24463,208.42804 265.40033,206.97792 C 265.40219,206.95426 265.40148,206.91235 265.40033,206.89155 C 265.39984,206.88653 265.401,206.86761 265.40033,206.86276 C 265.39946,206.85811 265.40138,206.83846 265.40033,206.83399 C 265.39533,206.81681 265.37962,206.79062 265.37154,206.7764 C 265.36933,206.77303 265.35956,206.76518 265.35715,206.76202 C 265.35454,206.75901 265.34556,206.75042 265.34274,206.74762 L 241.60733,183.0122 C 241.60434,183.00959 241.59612,183.00023 241.59295,182.99781 C 241.58958,182.99559 241.5821,182.98544 241.57855,182.98342 z "
       style="opacity:0.25;fill:#000000;fill-opacity:1;fill-rule:nonzero;stroke:#000000;stroke-width:3.25695014;stroke-linecap:round;stroke-linejoin:miter;stroke-miterlimit:4;stroke-dashoffset:0;stroke-opacity:1;display:inline" />
    <path
       style="fill:#ffffff;fill-opacity:1;fill-rule:nonzero;stroke:#000000;stroke-width:3;stroke-linecap:round;stroke-linejoin:miter;stroke-miterlimit:4;stroke-dasharray:none;stroke-dashoffset:0;stroke-opacity:1;display:inline"
       d="M 237.57855,180.98342 C 237.57107,180.97976 237.54359,180.9719 237.53536,180.96902 C 237.50962,180.96154 237.46688,180.95523 237.43462,180.95464 C 237.40127,180.95516 237.3448,180.96174 237.30507,180.96902 C 235.71472,181.29665 229.32671,186.70195 222.16277,193.86589 L 209.99999,206.02866 L 197.8372,193.86589 C 190.67327,186.70195 184.28525,181.29664 182.69491,180.96902 C 182.65517,180.96174 182.59873,180.95516 182.56537,180.95464 C 182.53309,180.95523 182.49035,180.96154 182.46461,180.96902 C 182.45639,180.9719 182.4289,180.97976 182.42142,180.98342 C 182.41787,180.98544 182.4104,180.99559 182.40703,180.99781 C 182.40385,181.00023 182.39563,181.00959 182.39264,181.0122 L 158.65723,204.74762 C 158.65442,204.75042 158.64544,204.75901 158.64283,204.76202 C 158.64042,204.76518 158.63065,204.77303 158.62844,204.7764 C 158.62035,204.79062 158.60464,204.81681 158.59965,204.83399 C 158.59859,204.83846 158.60051,204.85811 158.59965,204.86276 C 158.59897,204.86761 158.60013,204.88653 158.59965,204.89155 C 158.59849,204.91235 158.59778,204.95426 158.59965,204.97792 C 158.75536,206.42804 164.22451,212.90578 171.5109,220.19218 L 183.67369,232.35497 L 171.49651,244.53214 C 164.02642,252.00223 158.48251,258.62246 158.59965,259.84718 C 158.60033,259.852 158.59879,259.8713 158.59965,259.87595 C 158.60387,259.89385 158.62114,259.91858 158.62844,259.93353 C 158.6345,259.94418 158.635,259.96773 158.64283,259.97671 L 182.37824,283.71212 C 182.38104,283.71493 182.38963,283.72391 182.39264,283.72652 C 182.39581,283.72893 182.41806,283.7243 182.42142,283.72652 C 182.42498,283.72854 182.43209,283.73908 182.43582,283.74091 C 182.44367,283.74417 182.47041,283.75282 182.479,283.75531 C 182.50584,283.76163 182.54641,283.77025 182.57976,283.7697 C 182.59698,283.76886 182.63293,283.75783 182.65173,283.75531 C 184.17295,283.51264 190.59763,278.08361 197.82282,270.85845 L 209.99999,258.68127 L 222.17716,270.85845 C 229.40233,278.08361 235.82701,283.51265 237.34825,283.75531 C 237.36707,283.75783 237.40302,283.76886 237.42021,283.7697 C 237.45357,283.77025 237.49413,283.76163 237.52098,283.75531 C 237.52956,283.75282 237.55631,283.74417 237.56416,283.74091 C 237.56789,283.73908 237.57501,283.72854 237.57855,283.72652 C 237.58865,283.71987 237.61331,283.72054 237.62173,283.71212 L 261.35715,259.97671 C 261.35976,259.97372 261.35473,259.9511 261.35715,259.94792 C 261.35936,259.94456 261.36952,259.93708 261.37154,259.93353 C 261.37886,259.91858 261.39611,259.89385 261.40033,259.87595 C 261.40118,259.8713 261.39966,259.852 261.40033,259.84718 C 261.51747,258.62246 255.97356,252.00224 248.50346,244.53214 L 236.32629,232.35497 L 248.48907,220.19218 C 255.77546,212.90578 261.24463,206.42804 261.40033,204.97792 C 261.40219,204.95426 261.40148,204.91235 261.40033,204.89155 C 261.39984,204.88653 261.401,204.86761 261.40033,204.86276 C 261.39946,204.85811 261.40138,204.83846 261.40033,204.83399 C 261.39533,204.81681 261.37962,204.79062 261.37154,204.7764 C 261.36933,204.77303 261.35956,204.76518 261.35715,204.76202 C 261.35454,204.75901 261.34556,204.75042 261.34274,204.74762 L 237.60733,181.0122 C 237.60434,181.00959 237.59612,181.00023 237.59295,180.99781 C 237.58958,180.99559 237.5821,180.98544 237.57855,180.98342 z "
       id="rect1379" />
    <path
       sodipodi:nodetypes="csszssssszszcssz"
       id="path4837"
       d="M 217.8159,353.77402 C 197.51559,353.77402 176.01547,358.8532 176.01547,377.51772 C 176.01547,382.21221 175.63578,388.38315 175.63578,393.09141 C 175.63578,396.66228 185.8784,397.96568 191.94371,398.17319 C 198.00901,398.38071 205.84981,396.61764 205.84981,393.34246 C 205.84981,385.75159 206.91712,380.33688 214.00407,380.33688 C 221.13573,380.33688 221.78128,385.0755 221.78128,387.04607 C 221.78128,389.07262 220.54173,393.60406 212.77248,398.49602 C 208.88785,400.94201 196.02399,407.70717 196.02399,413.78044 C 196.02399,420.2341 195.89605,424.4081 195.89605,430.49556 C 195.89605,436.35986 201.47366,438.14609 214.07613,438.14609 C 228.85338,438.14609 231.24672,435.26378 231.24672,430.33562 C 231.24672,425.41765 231.33894,423.07268 231.34559,420.65783 C 231.34559,417.87966 235.59307,414.61519 244.30276,405.82958 C 249.379,400.70908 252.36427,398.75064 252.36427,376.30474 C 252.36427,363.01554 238.11619,353.77402 217.8159,353.77402 z "
       style="opacity:0.25;fill:#000000;fill-opacity:1;fill-rule:evenodd;stroke:#000000;stroke-width:3.25695038;stroke-linecap:round;stroke-linejoin:miter;stroke-miterlimit:4;stroke-dasharray:none;stroke-opacity:1;display:inline" />
    <path
       style="fill:#ffffff;fill-opacity:1;fill-rule:evenodd;stroke:#000000;stroke-width:3;stroke-linecap:round;stroke-linejoin:miter;stroke-miterlimit:4;stroke-dasharray:none;stroke-opacity:1;display:inline"
       d="M 213.8159,351.77402 C 193.51559,351.77402 172.01547,356.8532 172.01547,375.51772 C 172.01547,380.21221 171.63578,386.38315 171.63578,391.09141 C 171.63578,394.66228 181.8784,395.96568 187.94371,396.17319 C 194.00901,396.38071 201.84981,394.61764 201.84981,391.34246 C 201.84981,383.75159 202.91712,378.33688 210.00407,378.33688 C 217.13573,378.33688 217.78128,383.0755 217.78128,385.04607 C 217.78128,387.07262 216.54173,391.60406 208.77248,396.49602 C 204.88785,398.94201 192.02399,405.70717 192.02399,411.78044 C 192.02399,418.2341 191.89605,422.4081 191.89605,428.49556 C 191.89605,434.35986 197.47366,436.14609 210.07613,436.14609 C 224.85338,436.14609 227.24672,433.26378 227.24672,428.33562 C 227.24672,423.41765 227.33894,421.07268 227.34559,418.65783 C 227.34559,415.87966 231.59307,412.61519 240.30276,403.82958 C 245.379,398.70908 248.36427,396.75064 248.36427,374.30474 C 248.36427,361.01554 234.11619,351.77402 213.8159,351.77402 z "
       id="path2277"
       sodipodi:nodetypes="csszssssszszcssz" />
    <path
       transform="matrix(0.65139,0,0,0.65139,-204.7508,64.89706)"
       d="M 671.42854 606.64789 A 28.571428 22.857143 0 1 1  614.28569,606.64789 A 28.571428 22.857143 0 1 1  671.42854 606.64789 z"
       sodipodi:ry="22.857143"
       sodipodi:rx="28.571428"
       sodipodi:cy="606.64789"
       sodipodi:cx="642.85712"
       id="path4839"
       style="opacity:0.25;fill:#000000;fill-opacity:1;fill-rule:nonzero;stroke:#000000;stroke-width:5;stroke-linecap:round;stroke-linejoin:miter;stroke-miterlimit:4;stroke-dasharray:none;stroke-dashoffset:0;stroke-opacity:1;display:inline"
       sodipodi:type="arc" />
    <path
       sodipodi:type="arc"
       style="fill:#ffffff;fill-opacity:1;fill-rule:nonzero;stroke:#000000;stroke-width:4.60553598;stroke-linecap:round;stroke-linejoin:miter;stroke-miterlimit:4;stroke-dasharray:none;stroke-dashoffset:0;stroke-opacity:1;display:inline"
       id="path3155"
       sodipodi:cx="642.85712"
       sodipodi:cy="606.64789"
       sodipodi:rx="28.571428"
       sodipodi:ry="22.857143"
       d="M 671.42854 606.64789 A 28.571428 22.857143 0 1 1  614.28569,606.64789 A 28.571428 22.857143 0 1 1  671.42854 606.64789 z"
       transform="matrix(0.65139,0,0,0.65139,-208.7508,62.89706)" />
    <path
       sodipodi:nodetypes="cscscszsscscssc"
       id="path6595"
       d="M 208.53127,538.25905 C 189.11396,538.74685 175.62503,547.86446 175.62502,560.7903 C 175.62502,564.08188 176.1822,579.10011 177.09377,579.69655 C 178.44996,585.35589 180.6965,587.30444 183.68752,590.32155 C 190.42392,597.11667 194.50291,600.58374 196.00002,603.1028 C 195.96311,607.11887 195.90627,610.55056 195.90627,614.9778 C 195.90626,619.6051 205.31518,622.4778 208.65627,622.4778 C 211.74811,622.4778 216.21536,622.4778 219.31252,622.4778 C 222.53429,622.4778 232.09377,619.6051 232.09377,614.9778 C 232.09377,610.55056 232.03693,607.11887 232.00002,603.1028 C 233.49713,600.58374 237.57612,597.11667 244.31252,590.32155 C 247.30353,587.30444 249.55008,585.35589 250.90627,579.69655 C 251.81784,579.10011 252.37502,564.08188 252.37502,560.7903 C 252.37502,547.50108 238.11281,538.25905 217.81252,538.25905 C 216.54375,538.25905 209.07714,538.24534 208.53127,538.25905 z "
       style="opacity:0.25;fill:#000000;fill-opacity:1;fill-rule:evenodd;stroke:#000000;stroke-width:3.25699997;stroke-linecap:round;stroke-linejoin:miter;stroke-miterlimit:4;stroke-dasharray:none;stroke-opacity:1;display:inline" />
    <path
       style="fill:#ffffff;fill-opacity:1;fill-rule:evenodd;stroke:#000000;stroke-width:3;stroke-linecap:round;stroke-linejoin:miter;stroke-miterlimit:4;stroke-dasharray:none;stroke-opacity:1;display:inline"
       d="M 204.53127,536.25905 C 185.11396,536.74685 171.62503,545.86446 171.62502,558.7903 C 171.62502,562.08188 172.1822,577.10011 173.09377,577.69655 C 174.44996,583.35589 176.6965,585.30444 179.68752,588.32155 C 186.42392,595.11667 190.50291,598.58374 192.00002,601.1028 C 191.96311,605.11887 191.90627,608.55056 191.90627,612.9778 C 191.90626,617.6051 201.31518,620.4778 204.65627,620.4778 C 207.74811,620.4778 212.21536,620.4778 215.31252,620.4778 C 218.53429,620.4778 228.09377,617.6051 228.09377,612.9778 C 228.09377,608.55056 228.03693,605.11887 228.00002,601.1028 C 229.49713,598.58374 233.57612,595.11667 240.31252,588.32155 C 243.30353,585.30444 245.55008,583.35589 246.90627,577.69655 C 247.81784,577.10011 248.37502,562.08188 248.37502,558.7903 C 248.37502,545.50108 234.11281,536.25905 213.81252,536.25905 C 212.54375,536.25905 205.07714,536.24534 204.53127,536.25905 z "
       id="path1340"
       sodipodi:nodetypes="cscscszsscscssc" />
    <path
       sodipodi:nodetypes="czzssssccssss"
       id="path6597"
       d="M 229.56077,625.26939 C 228.37619,626.0992 223.31989,628.23414 219.27824,628.23414 C 215.14854,628.23414 213.15697,628.23379 208.72195,628.23379 C 204.3753,628.23379 199.74686,626.15861 198.53001,625.32342 C 197.31315,624.48824 196.12184,624.4358 196.1145,625.87359 C 196.10716,627.31138 196.07606,637.47451 196.07606,639.20079 C 196.07604,641.49272 199.1958,643.34788 202.33448,644.63118 C 205.47315,645.91449 208.50926,650.43391 208.70642,650.48675 C 209.01771,650.48675 219.20149,650.48675 219.29364,650.48675 C 219.55475,650.43896 222.71234,645.85329 225.80465,644.57185 C 228.89696,643.29043 231.92399,641.45691 231.92399,639.20079 C 231.92399,637.46871 231.89292,627.29081 231.88558,625.85051 C 231.87824,624.41021 230.74534,624.43958 229.56077,625.26939 z "
       style="opacity:0.25;fill:#000000;fill-opacity:1;fill-rule:evenodd;stroke:#000000;stroke-width:3.22638965;stroke-linecap:round;stroke-linejoin:bevel;stroke-miterlimit:4;stroke-dasharray:none;stroke-opacity:1;display:inline" />
    <path
       style="fill:#ffffff;fill-opacity:1;fill-rule:evenodd;stroke:#000000;stroke-width:3;stroke-linecap:round;stroke-linejoin:bevel;stroke-miterlimit:4;stroke-dasharray:none;stroke-opacity:1;display:inline"
       d="M 225.56077,623.26939 C 224.37619,624.0992 219.31989,626.23414 215.27824,626.23414 C 211.14854,626.23414 209.15697,626.23379 204.72195,626.23379 C 200.3753,626.23379 195.74686,624.15861 194.53001,623.32342 C 193.31315,622.48824 192.12184,622.4358 192.1145,623.87359 C 192.10716,625.31138 192.07606,635.47451 192.07606,637.20079 C 192.07604,639.49272 195.1958,641.34788 198.33448,642.63118 C 201.47315,643.91449 204.50926,648.43391 204.70642,648.48675 C 205.01771,648.48675 215.20149,648.48675 215.29364,648.48675 C 215.55475,648.43896 218.71234,643.85329 221.80465,642.57185 C 224.89696,641.29043 227.92399,639.45691 227.92399,637.20079 C 227.92399,635.46871 227.89292,625.29081 227.88558,623.85051 C 227.87824,622.41021 226.74534,622.43958 225.56077,623.26939 z "
       id="path1357"
       sodipodi:nodetypes="czzssssccssss" />
    <path
       style="fill:none;fill-opacity:0.75;fill-rule:evenodd;stroke:#000000;stroke-width:3;stroke-linecap:butt;stroke-linejoin:miter;stroke-miterlimit:4;stroke-dasharray:none;stroke-opacity:1;display:inline"
       d="M 187.75753,565.9792 C 187.75753,553.64649 217.05223,555.04747 217.05223,565.80726 C 217.05223,576.56705 203.07869,576.60192 203.07869,565.94203 C 203.07869,555.45891 232.24252,553.90517 232.24252,565.80726"
       id="path1331"
       sodipodi:nodetypes="czzc" />
  </g>
  <g
     inkscape:groupmode="layer"
     id="layer2"
     inkscape:label="luminance"
     style="display:inline"
     sodipodi:insensitive="true">
    <path
       style="opacity:0.72727272;fill:url(#linearGradient6608);fill-opacity:1;fill-rule:nonzero;stroke:none;stroke-width:6;stroke-linecap:round;stroke-linejoin:miter;stroke-miterlimit:4;stroke-dasharray:none;stroke-dashoffset:0;stroke-opacity:1"
       d="M 170.30153,165.36218 L 249.69845,165.36218 C 264.8235,165.36218 276.99998,175.53927 276.99998,188.18076 L 276.99998,194.5192 C 189.30727,194.5192 246.48541,251.08774 143,251.08774 L 143,188.18076 C 143,175.53927 155.17648,165.36218 170.30153,165.36218 z "
       id="rect6599"
       sodipodi:nodetypes="ccccccc" />
    <path
       sodipodi:nodetypes="ccccccc"
       id="path6610"
       d="M 350.30153,165.36218 L 429.69845,165.36218 C 444.8235,165.36218 456.99998,175.53927 456.99998,188.18076 L 456.99998,194.5192 C 369.30727,194.5192 426.48541,251.08774 323,251.08774 L 323,188.18076 C 323,175.53927 335.17648,165.36218 350.30153,165.36218 z "
       style="opacity:0.72727272;fill:url(#linearGradient6612);fill-opacity:1;fill-rule:nonzero;stroke:none;stroke-width:6;stroke-linecap:round;stroke-linejoin:miter;stroke-miterlimit:4;stroke-dasharray:none;stroke-dashoffset:0;stroke-opacity:1" />
    <path
       sodipodi:nodetypes="ccccccc"
       id="path6614"
       d="M 170.30153,344.36218 L 249.69845,344.36218 C 264.8235,344.36218 276.99998,354.53927 276.99998,367.18076 L 276.99998,373.5192 C 189.30727,373.5192 246.48541,430.08774 143,430.08774 L 143,367.18076 C 143,354.53927 155.17648,344.36218 170.30153,344.36218 z "
       style="opacity:0.72727272;fill:url(#linearGradient6616);fill-opacity:1;fill-rule:nonzero;stroke:none;stroke-width:6;stroke-linecap:round;stroke-linejoin:miter;stroke-miterlimit:4;stroke-dasharray:none;stroke-dashoffset:0;stroke-opacity:1" />
    <path
       style="opacity:0.72727272;fill:url(#linearGradient6620);fill-opacity:1;fill-rule:nonzero;stroke:none;stroke-width:6;stroke-linecap:round;stroke-linejoin:miter;stroke-miterlimit:4;stroke-dasharray:none;stroke-dashoffset:0;stroke-opacity:1"
       d="M 350.30155,344.36218 L 429.69847,344.36218 C 444.82352,344.36218 457,354.53927 457,367.18076 L 457,373.5192 C 369.30729,373.5192 426.48543,430.08774 323.00002,430.08774 L 323.00002,367.18076 C 323.00002,354.53927 335.1765,344.36218 350.30155,344.36218 z "
       id="path6618"
       sodipodi:nodetypes="ccccccc" />
    <path
       style="opacity:0.72727272;fill:url(#linearGradient6624);fill-opacity:1;fill-rule:nonzero;stroke:none;stroke-width:6;stroke-linecap:round;stroke-linejoin:miter;stroke-miterlimit:4;stroke-dasharray:none;stroke-dashoffset:0;stroke-opacity:1"
       d="M 170.30153,526.36218 L 249.69845,526.36218 C 264.8235,526.36218 276.99998,536.53927 276.99998,549.18076 L 276.99998,555.5192 C 189.30727,555.5192 246.48541,612.08774 143,612.08774 L 143,549.18076 C 143,536.53927 155.17648,526.36218 170.30153,526.36218 z "
       id="path6622"
       sodipodi:nodetypes="ccccccc" />
    <path
       sodipodi:nodetypes="ccccccc"
       id="path9601"
       d="M 350.30153,526.36218 L 429.69845,526.36218 C 444.8235,526.36218 456.99998,536.53927 456.99998,549.18076 L 456.99998,555.5192 C 369.30727,555.5192 426.48541,612.08774 323,612.08774 L 323,549.18076 C 323,536.53927 335.17648,526.36218 350.30153,526.36218 z "
       style="opacity:0.72727272;fill:url(#linearGradient9603);fill-opacity:1;fill-rule:nonzero;stroke:none;stroke-width:6;stroke-linecap:round;stroke-linejoin:miter;stroke-miterlimit:4;stroke-dasharray:none;stroke-dashoffset:0;stroke-opacity:1" />
  </g>
</svg>
